<svg fill="none" height="48" viewBox="0 0 60 48" width="60" xmlns="http://www.w3.org/2000/svg"><g fill="#fcfeea"><path d="m39.625 9.94166v6.07574l1.371-.3155v-3.3461l1.1976-.2616v-1.3181l-1.1976.3023v-1.4534z"/><path d="m47.2858.0478875 1.6428 7.1513925-3.9588-1.91011-1.4628.66444v2.13877l-.6324-.22866-7.3416-3.16656c-2.3922-1.01162-5.6832-1.08944-7.9332.30229-1.7088.94099-3.3516 2.75892-4.3248 4.48885-2.1384-.74225-3.8088-2.39736-6.2616-1.98433-2.2458.31366-4.4454 1.96757-5.4498 4.13563-.3222.7549-.4848 1.4397-.6174 2.3896l3.6438-.832c.0318-.3304.252-.9817.753-1.4851.6624-.5729 1.434-.9656 2.3658-.7866.2928.1054.6648.2754.7938.6238.3444.9984-.7812 1.846-1.665 2.8421l-5.9844 6.8078v1.5461l11.2254-2.6391v-2.3956l-4.575.9883c.5436-1.5157 5.9772-4.714 4.2792-8.96817l1.182.57167c-.6642 2.1202-.5454 4.7582.8544 6.469 1.1994 1.3803 2.8824 2.0334 4.6434 1.8658l5.298-1.272c2.8068-1.9562 4.5786-4.8193 4.2084-8.31986-.192-.98169-.5304-1.90951-1.0764-2.74215l.4122.09158 6.1584 2.66733v6.0422l1.5222-.3328v-3.3641c.03-.2251.4002-.4986.6168-.4986.5232-.1215.3126.5411.327.9858v2.6213l1.371-.2736v-3.8028l2.646 1.1223 1.0668 4.5775-2.913-1.2128-38.5026 8.6802v1.2888l1.0818.4064c-.4986.6878-.8076 1.6402-.8094 2.7051-.0012 1.002.285 1.7952.7464 2.2944l3.3702-.5992c.0468-.0599.0936-.1197.1362-.1796l-.5976-1.0846c-.273.3747-.7098.7021-1.1442.7829-.7314.1359-1.2972-.425-1.2948-1.439.0018-1.0146.537-1.8191 1.2678-1.9682.3966-.0808.8538-.0425 1.176.3388l.6012-1.3181c-.2262-.2286-.5346-.4351-.8982-.5507l1.4712.4334-.0084 4.8588 3.9102-.695.102-.6189-2.7648.5106.0018-1.1505 2.2356-.4256.003-1.4869-2.2368.4429.0018-1.1151 2.7336-.5567-.2424-1.445 1.0356.3879-.009 5.3035 1.308-.2329.0054-3.042 2.3112 2.6302 1.7088-.3041.0108-6.0553.729.2729-.0834 1.1511 1.491-.3035-.0078 4.5553 1.3704-.2442.0072-4.5906 1.5138-.3083-.1146-1.5947.7776.291-.0066 3.7717c-.0012.8314.1032 1.5162.4212 1.9688l3.9906-.7094c.333-.5812.4446-1.3282.4458-2.1986l.0084-4.3123 1.0164.3807-.0096 5.8705 1.5414-.2742.003-1.6575.9948 1.4797 1.8396-.3262-1.0908-1.6084c.3972-.2299.7032-.6028.9204-.9602.243-.4028.366-1.0403.3672-1.6126.0006-.3202-.0444-.7602-.1356-1.02-.0906-.261-.2244-.4789-.4026-.6543-.1692-.1664-.3834-.2813-.6372-.3483h.0066l1.8042.5423 1.9818 3.1175-.003 2.0436 1.6224-.2886.0042-2.0645 2.7252-5.267 3.5952 1.3995 1.9458 8.4467-5.703-2.2657-38.0916 6.7199.0162 1.3899 1.0794.407c-.2598.4155-.3942.9308-.3948 1.4576-.003 1.5587.9582 1.6414 1.6752 1.7593.4662.0844.7506.1951.75.5764 0 .3215-.2388.604-.627.6543-.5952.079-1.1232-.082-1.4322-.5154l-.537 1.2361c.0354.0485.0732.0946.1116.1395l3.3324-.4131c.189-.3879.288-.8578.2886-1.3881.003-1.5276-.9804-1.6461-1.7064-1.7677-.4848-.0664-.7524-.1454-.7512-.4932.0006-.2885.144-.5393.5172-.598.387-.0616.9168-.0784 1.2894.3262l.582-1.2295c-.2616-.2963-.5664-.4944-.9066-.5932l.003-.0036 1.491.449-.0822.8045 1.278-.2017-.0078 4.4475 1.1952-.1484.0084-4.4871 1.3146-.2077-.1674-1.6018h.0012l.978.3633-.006 3.3934c-.0012.8752.1782 1.6665.5622 2.2064l3.4416-.4274c.4044-.6548.5982-1.5246.6006-2.4452l.006-4.0273.0126-.0018 1.2126.4543-.0108 5.7938 4.1616-.516c.6234-.7243 1.0032-1.779 1.0068-3.0612.0018-1.7174-.6738-2.823-1.7118-3.1797l2.9436.8865-.009 5.0766 1.467-.1813.0114-6.7959.0186-.0029 2.0358.7632c-.5412.7841-.8652 1.7814-.867 2.8786-.0024 1.2499.4122 2.2477 1.0932 2.872l4.6326-.5758c.7284-.8249 1.1826-1.9825 1.185-3.2995.0036-1.8191-.8556-3.0845-2.1114-3.4706l3.1668.9524c-.0606.2442-.0912.495-.0918.747-.0036 1.9089 1.4412 1.9724 2.5212 2.0885.705.085 1.134.2107 1.1334.6794-.0006.3945-.3606.7512-.9486.8279-.8964.1185-1.692-.0599-2.1558-.5783l-.8058 1.5336c.0834.0892.1704.1736.2622.252l4.866-.6046c.33-.5028.5028-1.1253.504-1.8281.0036-1.8825-1.4868-1.9873-2.5854-2.1052-.7308-.0617-1.1322-.1467-1.131-.5741.0006-.3537.2166-.668.7782-.7572.5838-.0928 1.386-.1371 1.9488.343l.8832-1.5384c-.4662-.4142-1.0236-.6584-1.647-.7315l2.4186-.4058 6.1398 2.4381.9096 3.9471c.1038.2137.3126.44.6366.3167.4122-.103.4422-.531.3954-.8471l-3.069-31.9828m-46.9896.0478875-1.4784 33.1800125c0 .422.144.6214.4446.7417.3108.076.7062-.0886.81-.4226l6.2778-33.4991125m21.7512 12.9990125c-1.227 1.6246-3.0018 2.4249-4.9176 2.1837-1.0326-.1957-2.2308-1.0469-2.4816-2.1837-.336-1.6664.4134-3.14976 1.5954-4.25895 1.1532-.99846 2.5068-1.66529 4.0902-1.42346.96.16641 1.7574.83444 2.2482 1.72754.6624 1.25827.2352 2.89537-.5346 3.95487zm-10.1184 13.0392-2.9196-3.494.0252-.0048 2.8986 1.0871zm10.3902-2.21c-.0012.8548-.1014 1.4899-.9492 1.6467-.849.1575-.9858-.428-.9846-1.275l.0066-4.0417 1.9314.7249-.0048 2.9451zm5.3112-2.1041c-.1572.1856-.2988.2413-.7974.3394l-.4464.0874.003-1.585.447-.0916c.4896-.0994.6558-.1132.8238.0275.1248.106.2142.2377.213.5346 0 .2969-.1182.5411-.2424.6871zm5.2032-1.248-1.6668-2.5979.009-.0018 2.5194.9452-.8616 1.6551zm-22.1388 13.7024c-.0012.8458-.3186 1.6844-1.0056 1.776-.6888.091-.996-.6537-.9948-1.4881l.0066-3.7616 1.9986.7495-.0048 2.7236zm6.3066-1.1643c-.0018 1.105-.5964 2.0663-1.5402 2.1915l-.8616.1143.0072-3.9034.8694-.1371c.9846-.1551 1.5276.586 1.5252 1.7341zm10.041-5.2515.0192.006c-.006-.0018-.0132-.0036-.0204-.006zm.3984 3.746c-.0018 1.2858-.6942 2.249-1.752 2.389-1.0542.1401-1.7214-.6261-1.7184-1.8837.003-1.2697.6708-2.2172 1.7256-2.3842 1.059-.167 1.7472.5836 1.7454 1.8789zm10.7886-20.7963-2.4048-1.06129c-.429-.18078-.9456-.35078-1.3152-.33641-.3954 0-.7104.1257-.9714.51838v-3.71307l4.0896 1.9562.6018 2.63559z"/><path d="m56.8832 33.0594c-.8874.1867-1.8018.3836-2.6868.5189-.2952.0575-.4134.1371-.3228.4071.2784.8937 1.0308 1.5156 2.1834 1.2738.8142-.2269 1.3896-1.1218 1.2096-1.9239.0162-.2149.0426-.3496-.3834-.2759z"/><path d="m3.11589 34.44c-.396-.0904-.3258.8003-.0894 1.3917.339.8051.9456 1.0631 1.6374 1.0008.6696-.0131 1.3152-.4543 1.5798-1.1038.0792-.2292.255-.5794-.0276-.6704-1.0452-.2376-2.022-.4848-3.1002-.6183z"/><path d="m60 43.6387-2.6268-.41-.0162-6.7887c-.4728-.68-1.4892-.7853-2.2008-.5291-.2178.1065-.4818.1646-.5892.437-.0888.1532.1158.6704-.294.4728-2.172-.6853-4.0938-1.5324-6.216-2.2465l-1.0962.0629-26.7318 3.1815-9.8766 1.1972c-1.4352.255-2.9832 1.4839-3.3348 3.0145-.3282 1.4103.2472 2.7607 1.2072 3.7286l-2.6874.3951v-7.2717c0-.4406-.5628-.7459-1.3434-.7459-.6306 0-1.212.2419-1.2396.8183v7.5776l-2.9544.4244v1.0452l10.5252-1.545c.2256-.0916.8736-.0605.5664-.273-.5664-.2119-.801-.3322-1.2282-.5483-.8124-.3627-1.6398-1.1181-1.8042-2.0412-.2454-1.2732.474-2.4231 1.4934-3.0935 1.2594-.8195 3.387-.9057 4.95-.6201l45.4974 5.1694m-5.4636-2.0921-34.4382-3.819 27.5268-2.9565 6.9114 2.3358v4.4391z"/></g></svg>