<svg fill="none" height="72" viewBox="0 0 92 72" width="92" xmlns="http://www.w3.org/2000/svg"><g fill="#fcfeea"><path d="m23.457 37.1207v.0293c.5606.0147 1.3131.132 2.0507.4985l41.8101-8.2688v-.9383z"/><path d="m23.457 20.7447v.9383l43.8461-8.6793v-.9236z"/><path d="m36.9414 24.2951v3.3427s1.5196-.9823 1.5196-2.2578c0-1.5834-1.5196-1.0849-1.5196-1.0849z"/><path d="m36.9414 24.2951v3.3427s1.5196-.9823 1.5196-2.2578c0-1.5834-1.5196-1.0849-1.5196-1.0849z"/><path d="m54.5559 20.9076c-1.1508.2346-2.095 1.3781-2.095 2.5657 0 1.0409.7229 1.7593 1.6819 1.7593.1328 0 .2655-.0147.4131-.044 1.1655-.2346 2.0949-1.3781 2.0949-2.5657 0-1.1875-.9442-1.9499-2.0949-1.7153z"/><path d="m54.5559 20.9076c-1.1508.2346-2.095 1.3781-2.095 2.5657 0 1.0409.7229 1.7593 1.6819 1.7593.1328 0 .2655-.0147.4131-.044 1.1655-.2346 2.0949-1.3781 2.0949-2.5657 0-1.1875-.9442-1.9499-2.0949-1.7153z"/><path d="m23.457 22.4469v13.8692l43.8461-8.6792v-13.8693zm10.7107 9.1777-1.8146.3666v-3.0055l-2.0064.3958s.0738-.4545.2065-.9676c.1328-.5571.2213-.7331.2213-.7331l1.5786-.3518v-3.7826c-1.7703 2.3018-2.4637 4.6182-2.7145 6.3776-.1623 1.1728-.1181 2.0965-.0738 2.595l-1.9622.3811c-.0147-.2785 0-.5424.0295-1.0556.0296-.601.1033-1.1875.2066-1.7446.6344-3.6213 2.4342-6.1576 3.3489-7.2572.0885-.1026.1328-.1906.1476-.2492.0147-.044 0-.088-.0295-.1173-.0738-.0587-.2656-.0147-.3246 0v-.0733l3.1866-.6304zm2.7736-2.551v1.9793l-1.5491.3225v-7.4478c0-.2199-.1917-.3812-.413-.3665l-.2213.044v-.0733l2.6408-.5132c.1327-.0293.3393-.0439.5753-.0733.7819 0 1.9327.2786 2.0064 1.8033.1033 2.3458-3.0391 4.325-3.0391 4.325zm7.7454-.5278v.997l-3.9686.7917v-7.4625c0-.2199-.1918-.3811-.4131-.3665l-.2065.044v-.0733l4.4111-.865v1.1582l-2.2424.4398v2.0672l1.8589-.3665v1.0996l-1.8589.3665v2.3897l2.4195-.7623zm8.0109-.733c0 .1759-.0148.3079-.0148.2932 0 0-.0885.0147-.2655.044-.3689.0586-1.0918.1173-1.8884-.1466-.5164-.1613-1.0622-.4692-1.5638-.997-.782-.8356-1.1213-1.7886-1.1213-1.7886.5606-.5425.9-1.2315.9-2.0819 0-1.3048-1.5639-.8796-1.5639-.8796v6.8027l-1.5638.3078v-7.4624c0-.2199-.1918-.3958-.4131-.3665l-.2065.044v-.0733l2.8768-.5718c.1328-.0147.3541-.044.5901-.0147.7525 0 1.8147.2639 1.8737 1.6567.0442.9823-.4426 1.774-1.077 2.2871 0 0 .4426 1.0556 1.5196 1.5394 1.2097.5571 1.9621.3666 1.9621.3666s-.0295.645-.0442 1.0409zm1.8589-1.1729c-1.9327.3812-3.4965-.8943-3.4965-2.8735 0-1.9793 1.5638-3.8852 3.4965-4.281.2213-.044.4573-.0734.6786-.0587 1.6081 0 2.8178 1.2169 2.8178 2.9469 0 1.9645-1.5638 3.8705-3.4964 4.2663zm8.2174-.6744-3.9686.7917v-7.4478c-.0147-.1173-.059-.2492-.177-.3225-.1475-.088-.3983-.0293-.4573-.0147v-.0733l2.1982-.4105v6.7001l2.4047-.7331z"/><path d="m23.457 22.4469v13.8692l43.8461-8.6792v-13.8693zm10.7107 9.1777-1.8146.3666v-3.0055l-2.0064.3958s.0738-.4545.2065-.9676c.1328-.5571.2213-.7331.2213-.7331l1.5786-.3518v-3.7826c-1.7703 2.3018-2.4637 4.6182-2.7145 6.3776-.1623 1.1728-.1181 2.0965-.0738 2.595l-1.9622.3811c-.0147-.2785 0-.5424.0295-1.0556.0296-.601.1033-1.1875.2066-1.7446.6344-3.6213 2.4342-6.1576 3.3489-7.2572.0885-.1026.1328-.1906.1476-.2492.0147-.044 0-.088-.0295-.1173-.0738-.0587-.2656-.0147-.3246 0v-.0733l3.1866-.6304zm2.7736-2.551v1.9793l-1.5491.3225v-7.4478c0-.2199-.1917-.3812-.413-.3665l-.2213.044v-.0733l2.6408-.5132c.1327-.0293.3393-.0439.5753-.0733.7819 0 1.9327.2786 2.0064 1.8033.1033 2.3458-3.0391 4.325-3.0391 4.325zm7.7454-.5278v.997l-3.9686.7917v-7.4625c0-.2199-.1918-.3811-.4131-.3665l-.2065.044v-.0733l4.4111-.865v1.1582l-2.2424.4398v2.0672l1.8589-.3665v1.0996l-1.8589.3665v2.3897l2.4195-.7623zm8.0109-.733c0 .1759-.0148.3079-.0148.2932 0 0-.0885.0147-.2655.044-.3689.0586-1.0918.1173-1.8884-.1466-.5164-.1613-1.0622-.4692-1.5638-.997-.782-.8356-1.1213-1.7886-1.1213-1.7886.5606-.5425.9-1.2315.9-2.0819 0-1.3048-1.5639-.8796-1.5639-.8796v6.8027l-1.5638.3078v-7.4624c0-.2199-.1918-.3958-.4131-.3665l-.2065.044v-.0733l2.8768-.5718c.1328-.0147.3541-.044.5901-.0147.7525 0 1.8147.2639 1.8737 1.6567.0442.9823-.4426 1.774-1.077 2.2871 0 0 .4426 1.0556 1.5196 1.5394 1.2097.5571 1.9621.3666 1.9621.3666s-.0295.645-.0442 1.0409zm1.8589-1.1729c-1.9327.3812-3.4965-.8943-3.4965-2.8735 0-1.9793 1.5638-3.8852 3.4965-4.281.2213-.044.4573-.0734.6786-.0587 1.6081 0 2.8178 1.2169 2.8178 2.9469 0 1.9645-1.5638 3.8705-3.4964 4.2663zm8.2174-.6744-3.9686.7917v-7.4478c-.0147-.1173-.059-.2492-.177-.3225-.1475-.088-.3983-.0293-.4573-.0147v-.0733l2.1982-.4105v6.7001l2.4047-.7331z"/><path d="m51.9307 3.75321-.059-.01466-2.5375 10.40925.4573-.0879zm.1033 9.86679 4.9275-13.5906781-.059-.0293219-5.3996 13.7227zm-8.4535 1.6714-2.9801-14.38242-.059.014661 2.5523 14.470359zm1.136-11.9487h-.059l.5458 11.6115.4574-.088zm9.56 9.8228 4.2636-8.66458-.0443-.02933-4.6914 8.78191zm5.016-.9822 6.3143-8.25416-.0443-.02932-6.7864 8.38608zm-2.5375.4984 7.6421-12.403142-.0443-.029322-8.1584 12.535164zm-23.059 4.5596-11.5664-10.16005-.0443.04398 11.05 10.23337zm-6.993 1.3781-12.5991-5.0433-.0442.0586 11.9352 5.1167zm-20.3887 13.664 15.6677-2.2724v-.3372l-15.6677 2.551zm14.4137 17.7252 2.3163-2.0819c-.0738-.0147-.1623-.0293-.2656-.044l-2.1834 2.0379zm9.7813-32.1369-14.4875-8.35673-.0295.04398 13.9564 8.43005zm8.5568-1.686-6.7274-12.12461-.059.02932 6.2405 12.19789zm-2.6113.5131-6.5799-7.88756-.0442.04398 6.1225 7.94628zm25.9063-5.1313 9.5453-10.673181-.0443-.043983-10.1058 10.834464zm-21.0673 4.1784-4.0424-10.70253-.059.01466 3.6293 10.77577zm27.4849 5.3512v.3666l17.4529-3.8119-.0148-.0586zm5.2373 16.5376.782.3079c.118-.0293.236-.044.3688-.0733l-1.0475-.4399c-.0442.0587-.0738.132-.1033.2053zm6.4324 11.3769-8.7043-5.9377c-.1033.0293-.2213.044-.3246.0733l8.9846 5.9231zm-11.6697-20.9065v.3958l1.9622.1759c.3983-.0879.7966-.1759 1.195-.2492zm0-4.1784 23.1918-2.5657v-.0586l-23.177 2.2284v.3959zm17.2611 9.8375-9.2797-1.8619c-.0295.0733-.059.1319-.1033.2052l9.3682 1.7153zm.6049-7.9316-17.866-.0293v.3665l17.866-.2639zm-17.866-12.1099 17.7037-9.7789-.0295-.04398-17.6742 9.42698zm-2.1687 23.1203s-2.0654-1.1729-2.626-1.4808c0 .1173-.0148.2346-.0148.3519l2.4933 1.3635zm-.8852-25.9352 7.2143-6.52417-.0443-.04398-7.7453 6.67075zm-1.8293 26.9761 1.608 1.0703.1476-.2493-1.7556-1.2168c.0147.1319.0147.2639 0 .3958zm3.6735-2.9908-.9-.4252c-.1475.0733-.2655.1027-.3836.132l1.136.5131zm1.2097-23.7508 10.1206-7.41841-.0295-.04399-10.0763 7.0959v.3665zm0 5.0727v.3812l16.8332-7.18386-.0295-.05864zm0 2.9322 21.3182-6.7733-.0148-.0587-21.3034 6.4215zm-51.4144 17.4026-10.56314 3.9291.01475.0587 9.94359-3.5187c.177-.1759.3835-.3225.6048-.4691zm37.0302 10.3066 6.6389 16.1711.059-.0147-6.2996-16.2297zm-2.3015.4839 6.8749 23.047.059-.0147-6.4913-23.135zm4.4849-.9383 11.1533 20.9065.0443-.0293-10.755-20.9799zm-6.5061 1.3634 3.6441 19.0886.059-.0147-3.3637-19.1472zm-1.3867-47.428198h-.0591l-1.3572 14.235798.5016-.1026zm-42.3708 23.911998 15.6825.8944v-.3372l-15.66774-.6158zm52.7421 21.625 9.8403 14.7049.0443-.0293-9.5305-14.7489zm19.0757-16.8308c-.0442.0879-.0737.1612-.118.2492l13.9859 1.2169v-.0587zm-2.862 5.9816 15.2546 4.4716.0148-.0586-15.1514-4.6915c-.0443.1026-.0885.1906-.118.2785zm2.4342 3.8999v.1759l5.6357 2.2431.0147-.0586zm-32.3682 27.5333h.059l.5016-17.9304-.3688.0733zm16.2431-21.0239 14.0449 16.9628.0443-.044-13.6466-16.9921c-.1475.0293-.295.0587-.4426.0733zm3.0687-.8503c-.0738.0293-.1623.0733-.2508.1026l11.3598 11.3036.0443-.044-11.0943-11.3769c-.0295 0-.0443 0-.059.0147zm11.3451-2.4044 10.991 5.7764.0295-.044-10.637-5.8057c-.118.0293-.2508.044-.3835.0733zm-8.424 1.774 14.2514 11.5821.0443-.0439-13.8679-11.6262c-.1475.0293-.2803.0733-.4278.088zm-19.9609 2.0232 2.3162 26.0232h.059l-2.2277-30.7587zm-39.13985 8.9285.02951.044 5.08984-3.8852c-.0148-.0586-.0295-.1026-.0295-.1612zm13.51375-22.7098-21.64268 5.7764.014753.0586 21.627927-5.4538zm-7.5388 9.2217-10.59265 5.2633.0295.0587 10.54845-5.0581c0-.0879 0-.1759.0147-.2639zm-4.4111 6.9493 5.2078-3.1228c-.0295-.0439-.059-.0879-.0885-.1319l-5.1488 3.1961zm11.9499-28.4716-15.21035-3.5919-.01475.0586 15.2251 3.8559zm0 2.4777-19.40022-2.7122-.01475.0586 19.41497 3.0202zm0 4.8675-21.982 1.3634v.0587l21.982-1.0263zm-5.9159 26.8442-1.0918 1.0409.0443.044 1.136-1.0409c-.0443-.0147-.059-.0293-.0885-.044zm21.9673-3.8998-6.3586 19.6017.059.0147c.059-.1613 5.3406-15.9805 5.5914-16.391l1.136-3.328zm2.8325-.5865-3.4522 16.2444.059.0147 3.7621-16.347zm-7.5093 5.0581-3.8505 8.7966.059.0293 4.0571-8.8846zm-4.1603.865-5.9455 10.5412.0443.0293 6.211-10.6292zm-13.9859 5.967.0443.044 6.1815-7.0226c-.1033.0293-.1918.044-.2951.0586zm25.4638 9.9548.059.0146 2.9653-22.4606-.4573.1027zm-13.086-19.6017-4.9275 6.9639.0442.0293 4.8685-6.6414c.0148-.1026.0148-.2345.0148-.3518z"/><path d="m54.6596 44.9072.3835-11.3916-3.9243.821-.3688 11.3916z"/><path d="m57.8463 41.6226c-.0295 1.0116.0295 1.4074.3689 1.8033.6048.4984 1.8588.6011 3.4079.2638 1.2245-.2638 2.4195-.777 3.3932-1.466-.1475-.4252-.3393-.7771-.5606-1.041-.0885-.0733-.177-.1319-.2803-.1759-.3836.8797-.7672 1.2755-1.3425 1.3928-.3394.0733-.5607-.0293-.7082-.2932-.1328-.0587-.2213-.1613-.295-.3226-.0886-.1906-.0738-.2639-.0443-1.2168l.236-7.3012 2.4048-.5131.0442-1.2462-2.3899.5131.1032-3.5333-1.1065.2346c-.8704 2.4044-2.1539 3.9438-3.5702 4.2517l-.5311.1173-.0443 1.2315 1.1803-.2492z"/><path d="m75.6523 39.2909-.0443 1.2022-10.0025 2.1112 5.5324-11.3916-4.7505.997.0442-1.0996 9.383-1.9792-5.3996 11.2596z"/><path d="m53.4205 29.0579c-1.372.2933-2.4785 1.4368-2.5228 2.595-.0147.3812.1033.7184.3098.9823.4279.3226 1.0623.4545 1.7704.3079 1.3278-.2786 2.4343-1.4514 2.4785-2.595.0148-.3958-.1033-.7184-.3098-.9969-.4278-.3079-1.0475-.4399-1.7261-.2933z"/><path d="m33.018 39.2174.0147-1.0702-3.8505.8063-.4869 14.8955 3.8506-.8063.1475-4.4423c.0885.1027.1918.1906.2803.2786 0 .0146.0148.0146.0148.0293.5458.4985 1.0474.6011 1.8588.4398 1.195-.2492 2.4048-1.0556 3.3195-2.1844 1.0474-1.3342 1.6376-2.9762 1.6966-4.8968.059-1.774-.3246-3.1521-1.1213-4.0464-.8556-.7624-2.1392-1.0996-3.3046-.8504-.841.176-1.5196.6451-2.1392 1.4954zm2.6998 3.9585c-.059 1.8766-.2361 3.0201-.5754 3.9291-.2213.6158-.6934 1.1289-1.136 1.2169-.3098.0733-.5606-.044-.7229-.3079-.3836-.1906-.5606-.8357-.5311-1.9353l.177-5.5271c.0295-.865.6049-1.7447 1.2688-1.8766.2951-.0587.5606.0586.7819.3665.1918.1173.3541.3518.4721.6744.2508.5278.3246 1.7007.2656 3.46z"/><path d="m16.0085 52.5586c1.2097.6598 2.626.7771 4.6472.3372 2.1244-.4691 3.6587-1.3488 4.9422-2.8002 1.2098-1.3488 1.9032-2.9322 1.8589-4.8381-.0147-1.041-.3835-1.862-.9589-2.4924-1.195-1.0849-3.0834-1.5394-4.7652-1.7007-1.2541-.1173-1.7999-.4691-2.0507-.8063-.5016-.3665-.4721-.8064-.4721-.9383.0147-.6744.6934-1.2609 1.7113-1.4808 1.2688-.2785 2.095-.0879 2.8179.7331.1327.1173.2508.2345.3688.3812.6934-.3959 1.3868-1.041 1.7409-1.6714-.0591-.088-.1328-.1759-.1918-.2639-.9295-.7917-2.5228-.9823-4.6177-.5131-3.467.777-5.4292 2.8002-5.5177 5.7324-.0295 1.0703.2213 1.9353.7967 2.5803.1328.1173.2803.2199.4278.3226.8114.5424 1.6081.7184 4.0719.9529 1.431.1173 1.9916.2053 2.4195.3959.2803.1319.5163.3079.6934.5278.413.3225.6491.7917.6343 1.3341-.0442 1.4661-1.549 2.7123-3.8948 3.2401-1.1655.2639-2.0211.1906-2.744-.1759-.2213-.132-.3984-.2932-.5459-.4692-.4573-.3665-.7229-.909-.7081-1.4807.0147-.6598.3098-1.1143 1.3425-1.9646-.6639-.3959-1.5786-.7477-2.095-.7624-.8851 1.1289-1.2982 2.0819-1.3277 3.1668-.0295.865.2213 1.6127.7376 2.2138.2213.1613.4426.3079.6787.4398z"/><path d="m45.7495 38.2652c.9294-2.4044 2.0064-3.6506 3.4079-3.9438.1033-.0294.2803-.044.4721-.0734.0443.3519.0443.5865.0295.865-.0147.6598-.1475 1.1876-.4868 2.1259-.4721-.2639-.7524-.3226-1.1508-.2346-1.4458.3079-2.5817 2.1992-2.6408 4.369l-.1917 5.5272-3.9096.821.3688-11.3916 3.9096-.821-.0738 3.416z"/></g></svg>