<svg fill="none" height="18" viewBox="0 0 123 18" width="123" xmlns="http://www.w3.org/2000/svg"><g fill="#fcfeea"><path d="m120.211 9.25789-.328-.10285c-1.067-.288-1.661-.55543-1.661-1.06972 0-.49371.553-.88457 1.394-.88457 1.271 0 1.846.72 2.174 1.39886l.718-.06172c-.165-.67885-.288-1.17257-.329-1.56343-.225-.06171-.451-.06171-.84-.16457-.452-.06172-1.005-.10286-1.497-.10286-2.564 0-3.835.94629-3.835 2.05714 0 1.06972 1.497 1.62513 2.85 1.95433l.226.0617c1.005.288 1.62.6171 1.62 1.2343 0 .6788-.677 1.008-1.497 1.008-1.559 0-2.563-1.1109-2.892-1.6663l-.717.1028c.164.6172.328 1.1109.492 1.5018-.554-.0618-.943-.2263-1.723-.8435-1.005-.8434-2.05-1.7897-3.055-2.73598.677-.49372 1.456-1.008 2.338-1.50171.84-.49372 1.333-.61715 2.235-.67886v-.32914h-4.286v.32914l.615.06171c.451.06172.287.288.062.49372-.944.78171-1.887 1.50171-3.056 2.34512v-1.66626c0-1.06972.103-1.23429 1.169-1.27543v-.32915h-4.963v.32915c1.108.06171 1.231.22628 1.231 1.27543v3.29146c0 .6171-.062 1.008-.287 1.1108-.39.1646-.616.0617-.882-.1646-.287-.2262-.615-.6171-1.169-1.1725-.451-.4526-1.066-1.1726-1.271-1.4606 1.168-.28799 2.05-.84342 2.05-1.66628 0-.61714-.492-1.06971-1.107-1.27543-.615-.22628-1.456-.32914-2.728-.32914h-5.1263l.1026.32914c1.0663.06172 1.1073.22629 1.1073 1.27543v3.29138c0 1.0698-.1025 1.2343-1.2714 1.2755v.3291h5.0858v-.3291c-1.107-.0617-1.2305-.2263-1.2305-1.2755v-1.2342h.2255c.287 0 .554.1645.677.3291.389.5554.841 1.1726 1.333 1.6251.676.5555 1.169.9463 3.404.8846.164 0 .779-.0617.943-.0617h3.897v-.3291c-1.108-.0618-1.272-.2263-1.272-1.2755v-1.62511h.062c1.168 1.11091 2.85 2.57141 3.445 3.18861h3.67v-.2263c.226.0617.493.1028.841.1645.451.1029 1.108.1646 1.723.1646 2.502 0 4.122-.8846 4.122-2.1188 0-1.008-1.292-1.50175-2.789-1.89261zm-18.826.61715c-.287.16456-.676.16456-1.23.16456h-.2255v-2.28342c0-.39086.0615-.49372.7175-.49372.615 0 1.62.39086 1.62 1.33715.062.49371-.225.92571-.882 1.27543z"/><path d="m92.0152 6.68631c-2.3378 0-3.9579.67885-4.7986 1.56342.5536-1.008.8818-1.66628.9433-1.78971.7792-1.23428.9433-1.33714 2.2352-1.46057v-.45257h-5.3523v.45257l.8408.06171c.9433.06171 1.0048.288.7177 1.06972-.3281.84343-1.1688 2.736-1.9481 4.36112l-.0615-.0617-3.4042-5.86285h-1.5585l-2.953 5.86285-.0615.0617-2.1122-4.62855c-.2871-.55543-.2256-.72.6152-.78172l.7178-.06171v-.45257h-6.9724v.45257c1.0664.06172 1.456.22629 2.0507 1.33714l.2871.49372h-3.3426l-2.5018 4.03202-2.8505-4.03202h-3.7938v.32914c1.2715.06172 1.456.288 1.2715 1.56343l-.1641 2.05715c-.1025.9463-.164 1.4606-.2871 1.7897 0 .1029-.0615.2263-.164.288-.1026 0-.3282-.3909-.5537-.72-.6152-1.0697-1.2715-2.24228-1.9482-3.45599l-1.0663-1.89258-1.0664.16458-3.117 5.24569c-.0615.0617-.0615.1029-.1026.1646-.1025.1646-.2255.3291-.3896.4526-.3281.2262-1.2714.288-1.8866.288-.4922 0-.8408 0-1.1074-.1029-.2871-.1029-.3281-.4526-.3281-.9463v-1.6663h.7793c1.3944 0 1.3944.0617 1.5585.9463h.7177v-2.40683h-.7177c-.1641.78171-.2256.84342-1.5585.84342h-.7793v-1.95429c0-.32914.0615-.45256.6152-.45256h.2871c.8408 0 1.3945.06171 1.62.22628.2871.16457.4512.49372.6152 1.008l.7178-.06172c-.0615-.78171-.1641-1.50171-.1641-1.66628h-7.5875v.32914c1.0664.06172 1.1689.22629 1.1689 1.27543v3.35311c0 .9463-.1025 1.1109-.9433 1.2343-.1641-.0617-.2871-.1646-.4512-.288-.2871-.2263-.6152-.5554-1.1073-1.0697-.4512-.4526-1.0664-1.1726-1.2715-1.4606 1.1689-.28796 2.0507-.84339 2.0507-1.72796 0-.61715-.4922-1.06972-1.1074-1.27543-.6152-.288-1.4559-.32915-2.6658-.32915h-4.8807c-.3281-.45257-.8408-.84343-1.3329-1.11085-1.497-.88458-3.8348-1.23429-6.5827-1.23429h-6.5827v.55543c1.456.06172 1.661.16457 1.661 1.62514v4.46401c0 1.4606-.164 1.6251-1.8456 1.728v.4937h5.8855c5.2292 0 9.4742-1.4606 9.4742-4.85485 0-.45257-.1641-.88457-.3897-1.33714.7178.06171.8408.32914.8408 1.27543v3.35316c0 1.1108-.1025 1.2343-1.2304 1.2754v.3291h4.9626v-.3291c-1.0663-.0617-1.2304-.2263-1.2304-1.2754v-1.2343h.2256c.2871 0 .4922.1646.6767.3908.3897.5555.8408 1.1726 1.2715 1.6252.6152.6171 1.1689.8846 3.4041.9463.3281 0 .5537-.0617.6767-.0617h9.1256v-.3292l-.4512-.0617c-.7177-.0617-.7177-.2263-.4921-.6789l.4511-.9462h2.5634l.5536 1.0697c.2256.3908.1641.5554-.3896.6171l-.4511.0617v.3292h6.9108v-.3292c-1.0664-.0617-1.456-.2263-1.497-.6171-.0616-.3292-.0616-.7817-.0616-1.6663l.1026-2.24228h.0615l3.0145 4.75198h.8818l3.1786-5.08112h.0615l.0615 3.57942c0 1.1109-.0615 1.2343-1.2714 1.2754v.3292h5.1267v-.3292c-1.1689-.0617-1.2304-.1645-1.2714-1.2754l-.1641-3.41485c-.0615-.94629 0-1.11086.8408-1.23429l3.3426 6.37714h1.7226l3.0145-5.59543h.0615l3.2811 5.59543h1.7226c.6767-1.3371 1.2714-2.6331 1.8456-3.744v.288c0 1.8514 2.1122 3.2914 5.4548 3.2914 3.1171 0 5.5164-1.3371 5.5164-3.5177-.1231-2.03655-2.3993-3.37369-5.4138-3.37369zm-64.7196 6.08909c-1.0664 0-1.5586-.288-1.5586-1.5017v-5.24568c0-.32914 0-.67885.1026-.67885.164-.06172.4511-.10286.9433-.10286 1.8866 0 4.409.84342 4.409 3.74399 0 2.448-1.9482 3.7851-3.8963 3.7851zm12.4886-2.736c-.2871.1646-.6767.1646-1.1689.1646h-.2255v-2.34512c0-.39086.0615-.49372.7177-.49372.6152 0 1.5585.39086 1.5585 1.39886 0 .432-.2871.94629-.8818 1.27538zm13.6986.8846.9433-1.95427h.0615l1.0049 1.95427zm38.5939 2.016c-1.6201 0-2.7274-1.3371-2.7274-3.12684 0-1.728 1.0663-2.63314 2.2762-2.63314 1.3945 0 2.5634 1.11085 2.5634 3.12688.0615 1.7897-.6562 2.6331-2.1122 2.6331z"/><path d="m6.97238 9.36c.06152 0 .06152 0 .10253-.06171-.06152-.16458 0-.22629.16406-.22629-.06153.10286.10253.32915.28709.39086.16406.06172.22558.32914.22558.39086.16405.16458.88179.16458 1.06635.16458.06152-.10287.10254-.16458.38963-.16458.22558 0 .32811.06171.49217.22628.10253.0617 0-.0617.28709-.10285.22562 0 .32812-.10286.45112-.16458.1026-.06171.1026-.10285.1641-.16457.0615-.06171.0615-.10286.1025-.16457.0615-.06172.0615-.22629.0615-.288 0-.06172-.2255.06172-.2255.06172-.1641.06171-.2256-.06172-.2256-.10286 0-.06171 0-.10286-.0615-.10286-.0616 0-.0615-.06171-.0615-.10285-.0616 0-.0616-.06172-.0616-.06172.0615 0 0-.10286 0-.10286-.0615 0-.1025 0-.1025-.06171 0-.06172.0615-.10286.1025-.16458.0615-.06171.0615-.10285 0-.16457-.0615-.10285-.0615-.22628 0-.28799-.1025 0-.16402.10285-.16402.10285-.06152-.10285-.06152-.22628 0-.288-.06152.06172-.10254.10286-.10254.10286.06152-.67886.84076-.88457 1.06636-.94629.3896-.06171.9433-.10286.8818.16457 0 0 .1025-.22628-.1025-.288.1025 0 .2255.10286.164.22629.0615-.06171.1641-.06171.2256 0-.0615 0-.1641.06172-.1641.10286.1026 0 .2256.06171.3281.45257.0616.16457.1026.72-.1025.88457v-.06172s-.0615.10286-.2256.10286v.10286s.2256-.10286.3281-.06171c0 0-.1025.22628-.164.28799.164 0 .6152.28801.6152.94629.0615.1029.1025.6171.1025.9463.3897-.4937.8408-1.33715 1.0664-2.6743.2871-1.46057.164-2.85943-.4922-4.23771-.9433-2.05715-3.2401-3.517717-5.39328-3.744003.45115-.1645715.88179-.226287 1.27142-.226287-.06152 0-.10253 0-.16405 0-3.44515 0-6.52118 1.89257-8.0797 4.752 1.98916.92571 4.61404 3.00343 5.94699 4.608z"/><path d="m6.02901 17.4039c.10254 0 .2871-.1028.38963-.288.16406-.1646.38963-.3291.45115-.4526.10254-.1028.22558-.3291.32811-.4937.10254-.2263.2871-.4937.2871-.72-.10254-.1028-.16405-.1028-.2871-.1645-.06152-.0618-.06152-.1029.06152-.1646.10254-.1029.16406-.2263.16406-.2263h.06152c-.10254-.0617-.38963-.1646-.77926-.3291-.45115-.1646-1.497-.7818-2.05068-1.3372.49216.288 1.33294.6172 2.17372.6789h-.06152s-.22557-.1646-.06152-.288c.06152-.0617 0 0 .16405.0617.10254 0 .16406 0 .2871-.0617.10253-.0617.32811-.1029.49216-.2263.16406-.1029.2871-.1646.45115-.4526.06153-.0617.06153-.1646.06153-.288 0 0 0 0-.16406-.0617-.10253-.0617-.16405 0-.16405-.1646 0-.1645.06152-.4525.06152-.4937 0-.0411.06152-.0617.22557-.0617.06152-.1646.10254-.3909.16406-.5554 0 0-.06152 0-.16406 0-.06152 0-.10253.0617-.16405.0617 0 .0617.06152.1028.06152.1646.06152.1645-.16406.1028-.16406.0617 0 0-.06152-.1029-.06152-.1646-.10253.0617-.22557 0-.22557-.0617-.06152-.1646-.06152-.2263-.10254-.3292-.06152-.0617-.16405-.0617-.10253-.1645 0-.0617.06152-.1029.10253-.1029 0 0 .06152-.0617.10254-.0617-.06152-.1646-.16406-.3909-.32811-.6171-.22558 0-.16406-.0618-.2871-.28805-.10253-.16457-.06152-.16457-.22557-.22628-.10254-.06172-.10254-.16457-.06152-.22628-1.45599-1.66629-4.12188-3.68229-5.782935-4.46401-.492164 1.27543-.881795 2.67429-.881795 4.13486 0 3.80576 2.3993 7.03546 5.78293 8.33146v-.0617c.02051 0 .06152.1028.24608.1028z"/><path d="m8.53121 10.5315c-.06152 0-.2871-.0617-.55369-.1646-.16405-.0617-.2871-.1646-.38963-.2263.10253.1646.16406.3292.22558.4526.10253-.1029.22557 0 .22557.1029.06152.0617.06152.0617.10254.1645.06152.0617.16405 0 .28709 0z"/><path d="m12.489.658203c1.62.719997 2.953 2.057147 3.6297 3.517717 1.2304 2.63314 1.1074 5.36914-.7793 7.87888-.3896.4937-2.5633 3.024-6.45962 2.9623 0 .0617-.06152.1028-.06152.1028s0 .0617.06152.1029c.06152.0617-.06152.2263-.16405.3908-.16406.1646-.16406.3292-.2871.2263-.10253-.1028-.16405-.0617-.16405-.0617s-.2871.288-.38963.4937c-.10254.2263-.16406.3909-.10254.6172.06152.1028.06152.3908-.10253.4525-.22558 0-.38963 0-.55369.1029-.10253.0617-.28709.1646-.38963.2263.77926.2263 1.55852.3291 2.3993.3291 5.06524 0 9.18704-4.032 9.18704-8.98969-.041-3.78515-2.4403-7.01486-5.8239-8.352007z"/><path d="m10.8681 11.314c0-.288-.0615-.4937-.0615-.4937l-.4511.1029c.1025.1645.2871.4937.4511.6788.0615-.0617.0615-.1028.0615-.288z"/><path d="m9.18749 13.1044c.10253-.0617.38963-.1028.6152-.2262 0 0 0-.0618-.06152-.1646-.06152-.0617-.16405-.4937-.28709-.8846 0 0-.06153-.288-.10254-.288-.06152 0-.06152.3909-.06152.4937v.1029s.10253 0 .10253.0617-.10253.4937-.10253.6171c0 .0618-.06152.0618-.10253 0-.10254 0-.2871-.0617-.2871-.0617s-.06152.288 0 .4937c.08203-.0205.18456-.144.2871-.144z"/></g></svg>