<?xml version="1.0" encoding="utf-8"?>
<!-- Generator: Adobe Illustrator 27.6.0, SVG Export Plug-In . SVG Version: 6.00 Build 0)  -->
<svg version="1.1" xmlns="http://www.w3.org/2000/svg" xmlns:xlink="http://www.w3.org/1999/xlink" x="0px" y="0px" width="212.6px"
	 height="92.1px" viewBox="0 0 212.6 92.1" style="enable-background:new 0 0 212.6 92.1;" xml:space="preserve">
<style type="text/css">
	.st0{fill:#F6F6F3;}
</style>
<g id="Laag_1">
</g>
<g id="Layer_1">
	<g>
		<g>
			<path class="st0" d="M97,27.9l-6.1,17.6h-3.6l-6.1-17.6h3.3l4.6,13.4l4.6-13.4H97z"/>
			<path class="st0" d="M101.8,26.2h0.4v19.1h-3.1V26.5L101.8,26.2z"/>
			<path class="st0" d="M115.9,45.6c-1,0-2.1-0.3-3.1-1.4c-0.5,0.4-1,0.8-1.6,1c-0.6,0.3-1.2,0.4-2.1,0.4c-0.9,0-2.1-0.2-3-0.8
				c-0.9-0.6-1.6-1.7-1.6-3.5c0-1.2,0.3-2.2,1-2.8c0.7-0.6,1.9-1,3.8-1c0.7,0,1.6,0,2.8,0.1v-0.7c0-0.9-0.3-1.6-0.8-2
				s-1.1-0.6-1.9-0.6c-1.2,0-2.6,0.4-3.7,0.9l-0.7-2.7c1.4-0.7,3.3-1.2,5-1.2c1.4,0,2.6,0.3,3.6,1c0.9,0.7,1.5,1.8,1.5,3.5V41
				c0,0.6,0.2,1.1,0.6,1.4c0.4,0.3,0.9,0.5,1.5,0.6L115.9,45.6z M112.3,39.8c-1.4,0-2.6,0-3.3,0.2c-0.8,0.2-1.2,0.6-1.2,1.4
				c0,1.1,0.8,1.7,1.9,1.7c0.4,0,1-0.1,1.6-0.4c0.6-0.3,1-1,1-2V39.8z"/>
			<path class="st0" d="M129.5,45.6c-1,0-2.1-0.3-3.1-1.4c-0.5,0.4-1,0.8-1.6,1c-0.6,0.3-1.2,0.4-2.1,0.4c-0.9,0-2.1-0.2-3-0.8
				c-0.9-0.6-1.6-1.7-1.6-3.5c0-1.2,0.3-2.2,1-2.8c0.7-0.6,1.9-1,3.8-1c0.7,0,1.6,0,2.8,0.1v-0.7c0-0.9-0.3-1.6-0.8-2
				c-0.5-0.4-1.1-0.6-1.9-0.6c-1.2,0-2.6,0.4-3.7,0.9l-0.7-2.7c1.4-0.7,3.3-1.2,5-1.2c1.4,0,2.6,0.3,3.6,1c0.9,0.7,1.5,1.8,1.5,3.5
				V41c0,0.6,0.2,1.1,0.6,1.4c0.4,0.3,0.9,0.5,1.5,0.6L129.5,45.6z M125.8,39.8c-1.4,0-2.6,0-3.3,0.2c-0.8,0.2-1.2,0.6-1.2,1.4
				c0,1.1,0.8,1.7,1.9,1.7c0.4,0,1-0.1,1.6-0.4c0.6-0.3,1-1,1-2V39.8z"/>
			<path class="st0" d="M132.8,31.6h2.6l0.3,1.1c1.3-0.8,2.8-1.3,4.4-1.3c1.3,0,2.6,0.4,3.5,1.1c0.9,0.8,1.5,2,1.5,3.7v9.1h-3.1
				v-8.2c0-1-0.4-1.7-0.9-2.2c-0.6-0.4-1.3-0.6-2.2-0.6c-1.1,0-2.1,0.3-3,0.8v10.1h-3.1V31.6z"/>
			<path class="st0" d="M159.8,45.3h-2.3l-0.6-1c-1.1,0.8-2.2,1.3-3.7,1.3c-2,0-3.4-0.8-4.4-2c-1-1.2-1.4-2.8-1.4-4.5
				c0-2.6,0.8-4.5,2.1-5.8c1.3-1.3,3.1-1.9,5.2-1.9c0.6,0,1.3,0,2,0.1v-5l2.6-0.3h0.5V45.3z M156.7,34.5c-0.8-0.2-1.6-0.3-2.2-0.3
				c-1.2,0-2.2,0.3-2.8,1.1c-0.7,0.7-1.1,1.8-1.1,3.2c0,1,0.3,2.1,0.8,2.8c0.6,0.8,1.4,1.3,2.5,1.3c0.9,0,2-0.3,2.8-0.8V34.5z"/>
			<path class="st0" d="M173.2,41.8v3c-1.2,0.6-2.7,0.8-3.9,0.8c-1.9,0-3.7-0.6-4.9-1.8c-1.3-1.2-2.1-3-2.1-5.3
				c0-2.3,0.8-4.1,1.9-5.3c1.1-1.2,2.7-1.8,4.2-1.8c0.4,0,1.2,0.1,2,0.3c0.8,0.3,1.7,0.8,2.3,1.7c0.7,0.9,1.1,2.3,1.1,4.2v2.1h-8.3
				c0.2,1.1,0.8,1.9,1.6,2.3c0.7,0.5,1.6,0.7,2.5,0.7c1.2,0,2.4-0.3,3.4-0.9L173.2,41.8z M171.1,37.2c-0.1-1-0.4-1.7-0.9-2.2
				c-0.5-0.5-1.1-0.7-1.7-0.7c-0.6,0-1.3,0.2-1.8,0.7c-0.5,0.5-0.9,1.2-1.1,2.2H171.1z"/>
			<path class="st0" d="M184.5,35c-0.8-0.5-1.5-0.7-2.3-0.7c-1,0-1.9,0.4-2.8,1v10h-3.1V31.6h2.6l0.3,1.1c0.9-0.8,2.1-1.4,3.5-1.4
				c0.4,0,0.9,0,1.4,0.1c0.5,0.1,1,0.2,1.3,0.4L184.5,35z"/>
			<path class="st0" d="M197.2,41.8v3c-1.2,0.6-2.7,0.8-3.9,0.8c-1.9,0-3.7-0.6-4.9-1.8c-1.3-1.2-2.1-3-2.1-5.3
				c0-2.3,0.8-4.1,1.9-5.3c1.1-1.2,2.7-1.8,4.2-1.8c0.4,0,1.2,0.1,2,0.3c0.8,0.3,1.7,0.8,2.3,1.7c0.7,0.9,1.1,2.3,1.1,4.2v2.1h-8.3
				c0.2,1.1,0.8,1.9,1.6,2.3c0.7,0.5,1.6,0.7,2.5,0.7c1.2,0,2.4-0.3,3.4-0.9L197.2,41.8z M195.1,37.2c-0.1-1-0.4-1.7-0.9-2.2
				c-0.5-0.5-1.1-0.7-1.7-0.7c-0.6,0-1.3,0.2-1.8,0.7c-0.5,0.5-0.9,1.2-1.1,2.2H195.1z"/>
			<path class="st0" d="M200.4,31.6h2.6l0.3,1.1c1.3-0.8,2.8-1.3,4.4-1.3c1.3,0,2.6,0.4,3.5,1.1c0.9,0.8,1.5,2,1.5,3.7v9.1h-3.1
				v-8.2c0-1-0.4-1.7-0.9-2.2c-0.6-0.4-1.3-0.6-2.2-0.6c-1.1,0-2.1,0.3-3,0.8v10.1h-3.1V31.6z"/>
			<path class="st0" d="M91.8,55.7l-2.6,7.6h-1.5L85,55.7h1.2l2.2,6.4l2.2-6.4H91.8z"/>
			<path class="st0" d="M98.4,59.8h-4.7c0.1,1.6,1.1,2.6,2.5,2.6c0.7,0,1.4-0.2,2.1-0.5l0,0v1c-0.8,0.4-1.5,0.5-2.2,0.5
				c-2.2,0-3.5-1.6-3.5-4c0-2.2,1-3.9,3.3-3.9c1.9,0,2.6,1.5,2.6,3.2V59.8z M97.3,58.8c0-1.2-0.3-2.2-1.5-2.2
				c-1.2,0-1.9,0.9-2.1,2.2H97.3z"/>
			<path class="st0" d="M100.1,55.7h0.8l0.3,0.9c0.6-0.7,1.2-1,1.9-1c0.2,0,0.4,0,0.6,0.1c0.2,0,0.4,0.1,0.6,0.2l-0.4,1
				c-0.3-0.1-0.7-0.2-1-0.2c-0.7,0-1.2,0.4-1.6,1v5.7h-1.1V55.7z"/>
			<path class="st0" d="M105.6,52.9l1.1-0.1h0.1v3.5c0.5-0.4,1.2-0.7,2-0.7c2.1,0,3.3,1.8,3.3,3.9c0,2.3-1.4,4-3.8,4
				c-0.9,0-1.8-0.2-2.5-0.5V52.9z M106.8,62.2c0.5,0.2,1,0.2,1.5,0.2c1.6,0,2.6-1.3,2.6-3.1c0-1.6-0.7-2.7-2.3-2.7
				c-0.8,0-1.4,0.3-1.8,0.8V62.2z"/>
			<path class="st0" d="M119.1,59.8h-4.7c0.1,1.6,1.1,2.6,2.5,2.6c0.7,0,1.4-0.2,2.1-0.5l0,0v1c-0.8,0.4-1.5,0.5-2.2,0.5
				c-2.2,0-3.5-1.6-3.5-4c0-2.2,1-3.9,3.3-3.9c1.9,0,2.6,1.5,2.6,3.2V59.8z M117.9,58.8c0-1.2-0.3-2.2-1.5-2.2
				c-1.2,0-1.9,0.9-2.1,2.2H117.9z"/>
			<path class="st0" d="M126.1,59.8h-4.7c0.1,1.6,1.1,2.6,2.5,2.6c0.7,0,1.4-0.2,2.1-0.5l0,0v1c-0.8,0.4-1.5,0.5-2.2,0.5
				c-2.2,0-3.5-1.6-3.5-4c0-2.2,1-3.9,3.3-3.9c1.9,0,2.6,1.5,2.6,3.2V59.8z M124.9,58.8c0-1.2-0.3-2.2-1.5-2.2
				c-1.2,0-1.9,0.9-2.1,2.2H124.9z"/>
			<path class="st0" d="M128.8,52.7L128.8,52.7l0.1,10.6h-1.1V52.9L128.8,52.7z"/>
			<path class="st0" d="M137,63.3h-0.7l-0.2-0.7c-0.6,0.5-1.3,0.8-2.1,0.8c-1,0-1.8-0.5-2.4-1.2c-0.6-0.7-0.9-1.7-0.9-2.9
				c0-1.1,0.3-2,0.9-2.7c0.6-0.7,1.6-1.1,2.9-1.1c0.5,0,1,0.1,1.4,0.2v-2.9l1.1-0.1h0.1V63.3z M135.9,56.9c-0.5-0.2-1-0.3-1.5-0.3
				c-0.8,0-1.4,0.2-1.9,0.7c-0.5,0.5-0.7,1.2-0.7,2.2c0,0.8,0.2,1.5,0.5,2c0.4,0.5,0.9,0.9,1.8,0.9c0.8,0,1.4-0.3,1.8-0.8V56.9z"/>
			<path class="st0" d="M139.4,53.6c0-0.4,0.3-0.8,0.8-0.8c0.4,0,0.8,0.3,0.8,0.8c0,0.4-0.4,0.8-0.8,0.8
				C139.8,54.4,139.4,54.1,139.4,53.6z M139.6,55.7h1.1v7.6h-1.1V55.7z"/>
			<path class="st0" d="M143.3,55.7h0.8l0.2,0.7c0.3-0.2,0.7-0.4,1.1-0.6c0.4-0.2,0.8-0.3,1.2-0.3c0.7,0,1.4,0.2,1.9,0.6
				c0.5,0.5,0.8,1.2,0.8,2.2v4.9h-1.1v-4.8c0-0.7-0.2-1.2-0.5-1.5c-0.3-0.3-0.7-0.4-1.2-0.4c-0.4,0-0.7,0.1-1.1,0.2
				c-0.3,0.1-0.7,0.3-1,0.5v6h-1.1V55.7z"/>
			<path class="st0" d="M154.5,61.7c1,0,1.8,0.2,2.3,0.6c0.5,0.4,0.7,0.9,0.7,1.5c0,0.8-0.5,1.6-1.2,2.1c-0.7,0.5-1.7,0.9-2.7,0.9
				c-0.9,0-1.6-0.3-2.1-0.7c-0.5-0.4-0.8-1-0.8-1.7c0-0.6,0.3-1.3,0.9-1.9c-0.2-0.1-0.4-0.3-0.5-0.5c-0.1-0.2-0.2-0.5-0.2-0.7
				c0-0.4,0.2-0.9,0.5-1.3c-0.2-0.2-0.4-0.5-0.5-0.8c-0.1-0.3-0.2-0.7-0.2-1c0-0.7,0.3-1.4,0.8-1.8c0.5-0.5,1.2-0.7,2-0.7
				c0.6,0,1.1,0.1,1.5,0.4c0.3-0.2,0.7-0.4,1-0.6c0.3-0.1,0.7-0.2,0.9-0.2l0.3,1c-0.4,0.1-0.9,0.2-1.4,0.5c0.3,0.4,0.4,0.9,0.4,1.4
				c0,0.7-0.3,1.4-0.8,1.9c-0.5,0.5-1.2,0.8-2,0.8c-0.5,0-1-0.1-1.4-0.3c-0.2,0.2-0.3,0.4-0.3,0.6c0,0.4,0.3,0.7,0.9,0.7H154.5z
				 M152.6,62.7c-0.4,0.5-0.7,1.1-0.7,1.6c0,0.4,0.1,0.8,0.4,1.1s0.8,0.4,1.4,0.4c0.8,0,1.4-0.2,1.9-0.6c0.5-0.4,0.7-0.8,0.7-1.3
				c0-0.6-0.3-0.9-0.9-1c-0.5-0.2-1.3-0.2-2.1-0.2H152.6z M153.8,56.6c-0.6,0-1,0.2-1.3,0.5c-0.3,0.3-0.4,0.7-0.4,1.1
				c0,0.4,0.2,0.8,0.4,1.1c0.3,0.3,0.7,0.5,1.3,0.5c0.6,0,1-0.2,1.3-0.5c0.3-0.3,0.4-0.7,0.4-1.1c0-0.4-0.1-0.8-0.4-1.1
				C154.8,56.8,154.4,56.6,153.8,56.6z"/>
			<path class="st0" d="M173.5,55.7l-2.4,7.6h-1.4l-1.7-5.8l-1.7,5.8h-1.4l-2.4-7.6h1.1l2,6.3l1.9-6.3h1l1.9,6.3l2-6.3H173.5z"/>
			<path class="st0" d="M180.2,59.8h-4.7c0.1,1.6,1.1,2.6,2.5,2.6c0.7,0,1.4-0.2,2.1-0.5l0,0v1c-0.8,0.4-1.5,0.5-2.2,0.5
				c-2.2,0-3.5-1.6-3.5-4c0-2.2,1-3.9,3.3-3.9c1.9,0,2.6,1.5,2.6,3.2V59.8z M179.1,58.8c0-1.2-0.3-2.2-1.5-2.2
				c-1.2,0-1.9,0.9-2.1,2.2H179.1z"/>
			<path class="st0" d="M181.9,55.7h0.8l0.3,0.9c0.6-0.7,1.2-1,1.9-1c0.2,0,0.4,0,0.6,0.1c0.2,0,0.4,0.1,0.6,0.2l-0.4,1
				c-0.3-0.1-0.7-0.2-1-0.2c-0.7,0-1.2,0.4-1.6,1v5.7h-1.1V55.7z"/>
			<path class="st0" d="M192.7,63.5c-0.4,0-0.8-0.3-1.3-0.6c-0.4-0.3-0.9-0.8-1.3-1.3c-0.4-0.5-0.8-1-1.1-1.3
				c-0.1-0.2-0.2-0.4-0.3-0.5c-0.1-0.1-0.1-0.2-0.2-0.3v3.9h-1.1V52.9l1.1-0.2h0.1v6.6l3-3.6h1.4l-3.1,3.7c0,0.2,0.3,0.5,0.6,0.9
				c0.4,0.4,0.8,0.9,1.3,1.3c0.5,0.4,1,0.7,1.3,0.8L192.7,63.5z"/>
			<path class="st0" d="M193.7,55.7h0.8v-1.4l1.1-0.2h0.1v1.6h2.1v1.1h-2.1v3.7c0,0.7,0.2,1.2,0.4,1.5c0.2,0.3,0.6,0.4,1,0.4
				c0.4,0,0.9-0.2,1.4-0.5l0.3,1c-0.6,0.3-1.3,0.5-1.9,0.5c-0.7,0-1.2-0.2-1.7-0.7c-0.4-0.5-0.7-1.2-0.7-2.3v-3.7h-0.8V55.7z"/>
		</g>
		<g>
			<path class="st0" d="M42.3,27.9c-0.9,0-2.5,1.3-2.6,0c0-0.8,1-0.3,1.4-0.6c0.2-0.1,0.3-0.7,0.1-0.8c-0.3-0.1-0.8-0.2-1.2-0.1
				c-0.5,0.2-0.8,0.6-1.1,0.9c-0.3,0.2-0.4,0-0.5,0.2C37.7,30.1,42.8,31,42.3,27.9z"/>
			<path class="st0" d="M51.2,0L0,0v92.1h82.6L51.2,0z M44.4,33.5c-0.9,0.3-1.6-1.3-0.7-1.7c-0.4-1.1-2.5-0.8-4.4-1.4
				c-2.6-0.8-3.3-4.2-4.4-4.4C45.5,23.6,45.2,31.5,44.4,33.5z M16.6,25.2c0.3-4.2,4.1-5.9,5-6.5c0,0,1.7-1.2,1.9-2.4
				c0,0,1.8,4.4-2.3,6.9c-2,1.3-3.4,2.8-4.4,4.8C16.7,27,16.6,26,16.6,25.2z M18.5,30.7c7.9-6.6,6.3-8,6.3-8s1.1-0.1,1.8,1.2
				c0.2,0.4,1.8,2.7-4.7,8.1c-6.5,5.3-4.4,9.1-4.4,9.1S10.6,37.4,18.5,30.7z M20.7,60.1c-1.3,0.8,0.6-0.7-1.1-4.8
				c-1-2.3-1.8-4.8-1.2-8.8c0.3-1.4,1.2-3.9,2-5.4c1.6-2.9,6.8-7.5,7-10.9c0.4,1.5,1.2,4.8-1,8c-1.8,2.7-4,6.5-4.5,10.1
				c-0.2,1.9-0.1,3.7,0,5.3C22.1,55.5,22.4,58.7,20.7,60.1z M35.7,73c-3.3-4.2-15-5.9-8.9-23.7c2.3-6.8,1.8-9.5,1.8-9.5
				s3.1,2.4,0.9,12.1c-1.5,6.7,0.2,11.4,2.2,13.5C36.9,71.1,35.7,73,35.7,73z M51.6,75c-5.6,0-10.8-5.9-11.5-7.7
				c-0.2-0.7-0.4-2.3-0.4-2.6c0-1.3-0.2-2.7-0.3-4.5c-0.2-3-2.8-6.3-3.8-8.5c-0.3-0.8-0.9-2.5-1.2-3.2c-0.8-2.2-2-9-2.1-9.6
				c-3.2-15.3-4-17.1-4-17.1s1.1-0.5,3.5,5.8c0.6,1.6,1.4,4.1,1.8,5.8c0.4,1.8,1,3.8,1.5,5.9c0.5,2,0.8,4,1.3,6
				c0.8,3.2,3.1,5.6,3.8,8.9c0.4,1.8,1.5,2.9,2.6,3.7c2.5,1.7,6.9-0.6,7.5-3c0.1-0.3,0.1-1.1,0.1-1.4c-0.2-1.4-0.7-2.3-2-2.9
				c-0.3-0.1-1.4-0.6-2.2-1.1c-1-0.6-3.2-3.5-1.6-4.3c0.8-0.4,1.9,1.3,2.9,1.4c1.3,0.1,2.2-1.5,4.3,0.1l0,14.3c-1.4,0-3-0.8-5.7-0.6
				c-2.4,0.2-3.8,1.8-4.5,3.7c-0.4,0.9-0.7,3.1-0.7,3.2c0.1,0.3,5.3,3.4,10.9,3.4V75z"/>
		</g>
	</g>
</g>
</svg>
