<svg fill="none" height="68" viewBox="0 0 53 68" width="53" xmlns="http://www.w3.org/2000/svg"><g fill="#fcfeea"><path d="m24.1445 56.3047-1.7831.9615v-.9615h-2.8968v11.6944l2.8968-1.5605v-2.0199h1.7682l2.9347-1.5813v-6.5327zm-1.7831 1.8594h1.8061v4.3952h-1.8061zm-13.6954-5.0414v11.3859l-2.93338 1.5827h-5.73262l3.43741-1.8594h2.3318v-9.2484h-4.08099l3.44824-1.8608h3.5309zm6.0957 11.296v-1.05l-1.9483 1.05h-2.7546v-8.114h2.8955v6.2546h1.8074v-6.2546h2.8968v6.2546h1.6313l-3.4523 1.8594zm38.2383-8.114v1.8718l-2.8968 1.5647v-1.5771h-1.8061v6.2394h-2.8968v-8.0988h2.8968v1.0127l1.8766-1.0127zm-13.2442 8.114-2.9957-1.6145v-6.4995h5.3722l1.9686 1.0597v4.1214h-4.4441v.5686l4.3845 2.3629h-4.2855zm-.1003-4.7826h1.55v-1.472h-1.55zm-7.093-6.5189h2.8968v11.3029h-2.8968zm-4.1948 1.8663h2.8941v-1.8608h-2.8941zm-.0027 9.4352h2.8968v-8.114h-2.8968z"/><path d="m24.1445 56.3047-1.7831.9615v-.9615h-2.8968v11.6944l2.8968-1.5605v-2.0199h1.7682l2.9347-1.5813v-6.5327zm-1.7831 1.8594h1.8061v4.3952h-1.8061zm-13.6954-5.0414v11.3859l-2.93338 1.5827h-5.73262l3.43741-1.8594h2.3318v-9.2484h-4.08099l3.44824-1.8608h3.5309zm6.0957 11.296v-1.05l-1.9483 1.05h-2.7546v-8.114h2.8955v6.2546h1.8074v-6.2546h2.8968v6.2546h1.6313l-3.4523 1.8594zm38.2383-8.114v1.8718l-2.8968 1.5647v-1.5771h-1.8061v6.2394h-2.8968v-8.0988h2.8968v1.0127l1.8766-1.0127zm-13.2442 8.114-2.9957-1.6145v-6.4995h5.3722l1.9686 1.0597v4.1214h-4.4441v.5686l4.3845 2.3629h-4.2855zm-.1003-4.7826h1.55v-1.472h-1.55zm-7.093-6.5189h2.8968v11.3029h-2.8968zm-4.1948 1.8663h2.8941v-1.8608h-2.8941zm-.0027 9.4352h2.8968v-8.114h-2.8968z"/><path d="m44.8041 7.21338-.2073-1.02238-1.0283.20752c-3.1448.64054-5.7652.88957-7.9398.88957-5.4535 0-8.101-1.56332-9.1484-2.42937-.0325-.02767-.0636-.05257-.0935-.07747.0407.38322.1423.79272.313 1.20915.3225.78304.8875 1.5896 1.7343 2.29793 2.928 2.45147 13.0505-1.75561 13.2226 8.83067.0325 2.0198-.6219 3.9138-.6219 3.9138 1.5595 1.7349 1.8467 3.2843 1.8399 4.9763-.0054 1.2368-.1097 2.8762-.3455 4.2113-.8657 2.2523-1.9497 4.369-3.2477 6.3335-.3631.5492-.7452 1.0846-1.1422 1.6103-1.2722-1.7404-4.1189-5.5117-3.1271-10.1698 0-.0014 0-.0042-.0027-.0028-.2032.2739-1.5311 2.3049.229 6.6932-.1667.1411-.4336.2947-.7642.2241.126.9864-.5108 1.2106-.5108 1.2106-1.6489.9324-1.966 2.0198-2.6638 2.6161-.6977.5949-.5704.8799-.5446 1.2562.0027.047.004.0927.0013.1356-.0135.3057-.1639.5464-.5853.8868-.4823.3887-.6083 2.4598-.6083 2.4598-.1328.1812-.3821.2933-.7195.361-.4336.0872-1.0108.1024-1.672.1024-.0758 0-.1558-.0027-.2371-.0069-.5677-.0318-1.2085-.1619-1.2085-.1619 0-.5783.4904-1.5052.8237-2.0267.0773-.1204.145-.2186.1979-.2878.0176-.0221.0338-.0443.0514-.0664.2006-.2656.3591-.5147.8469-1.2507.1219-.184.2642-.3984.4335-.6502.901-1.3461.2561-3.3383.2561-3.3383.2547-.1148.4973-.2407.7222-.3735.9023-.5299 1.5432-1.1538 1.7221-1.4803.0149-.0277.0271-.0526.0352-.0761.0799-.2228-.0407-.321-.0407-.321-1.2871 1.1538-2.9591 1.7183-3.6704 1.93.0176.0262.0339.0525.0474.0774.0393.0747.0556.1411.0474.1979-.0569.4565-.3956.718-.9389.9504-.1558.0664-.3279.13-.5149.1965-.6558.2296-1.4958.4786-2.4456.913-.5054.2311-.7628.4594-.8915.6143-.1003.1204-.122.1978-.122.1978s-.0176.0402-.0447.101c-.0027.0069-.0067.0152-.0095.0222-.004.0096-.0081.0179-.0122.0276-.0054.0139-.0121.0291-.0189.0443-.0027.0069-.0054.0125-.0082.018-.0189.0456-.0392.0968-.0596.148-.0013.0042-.004.0097-.0054.0139-.0081.0207-.0162.0428-.0244.0636-.0027.0055-.004.0111-.0068.018-.0081.0207-.0149.0415-.0216.0609-.0014.0055-.0041.011-.0054.0152-.0068.0221-.0136.0429-.0204.0622 0 .0028-.0027.0069-.0027.0097-.0149.047-.0244.0886-.0311.1231 0 .0042 0 .0083-.0014.0111-.0014.0125-.0027.0221-.0027.0318v.0111c0 .0069.0013.0138.0027.0194 0 .0027.0014.0055.0027.0083.0027.0041.0068.0069.0109.0083.0013 0 .004.0027.0054.0027.0081 0 .0162-.0027.0271-.0083.8319-.4814 1.1896-.451 1.1896-.451s.0027.0042.0054.0097c.0068.0138.0203.0401.0406.0816.1139.2366.4119.9048.5501 1.6948.0109.0664.0217.1328.0312.1992.0271.202.0379.4012.0339.5949-.0109.5824-.1572 1.1109-.355 1.5176-.2737.5645-.6368.6351-.6368.6351s-.9972.1687-1.4105.1687c-.0718 0-.1504-.0097-.2263-.0346-.1531-.0511-.294-.1508-.3278-.1784-.2317-.1868-.3049-.3791-.5285-.7969-.1449-.2712-.1734-.3293-.2398-.3846-.1111-.0927-.3644-.1605-1.6543-1.0777-.5189-.3694-.859-.8453-1.0189-1.3807-.0908-.3058-.1233-.6323-.0976-.9684.0339-.4206.1586-.8592.3767-1.2977.103-.2062.2127-.4718.3292-.7762.0285-.076.0583-.1549.0868-.2351.088-.2421.1775-.505.2682-.7789-.0027-.0014.859-2.7089.8441-3.4296-.0555-.0747-.9836 2.9841-1.5662 3.6468-.2751.3126-2.088-.1052-3.0405-4.0633l-1.0839-4.3911s-.0623 7.0128 2.7356 8.9801c-.0231-.0152.0271.4648-.3266 1.0473-.569.9366-1.5689 1.6504-1.6258 1.6947-.0041.0042-.0095.0069-.0136.0097-.2466.1882-.4864.368-.6896.534-.0204.0166-.038.0318-.0569.0484 3.0092 3.4933 6.7894 6.411 11.285 8.6993.145.0733.3076.112.4688.112s.3238-.0387.4701-.1134c5.8858-2.9952 10.548-7.0681 13.8567-12.104 2.6475-4.03 4.4319-8.6743 5.3031-13.8028 1.4633-8.6051-.1477-15.63172-.2317-15.98589z"/><path d="m6.99798 46.0223c-.07858-1.1012 1.63267-2.7489 1.63267-2.7489.41189-1.2355.49589-1.3752 1.16657-2.1665.65038-.7679.86168-1.7086 1.01488-2.2786.1856-.5949.3116-1.1884.3983-1.7695.0732-.4897.1165-.9684.1409-1.4291.0705-1.3253-.0203-2.4888-.0406-3.276 0-.0042 0-.0083 0-.0125-.0014-.0678-.0028-.1328-.0028-.195 0-.0194 0-.0374 0-.0554 0-.0498 0-.0954.0014-.1411 0-.018 0-.036 0-.0539.0014-.0582.0041-.1149.0095-.1647 0-.0027 0-.0097 0-.0207.0068-.1342.0528-.8661.1328-1.5813.0203-.1785.042-.357.065-.5244.0312-.2158.0542-.4344.0813-.653-.0352-.0843-.0786-.2019-.1247-.3624-.126-.4414-.2723-1.1953-.3251-2.4225-.0055-.112-.0095-.2227-.0122-.3431-.0637-2.3602.7628-3.5818.9281-3.8017.4607.8342 1.401 1.6325 1.401 1.6325l-.7032-1.9383c-.4255-1.1731-.2846-2.3159-.1057-3.0367 1.8549-5.6666 6.3233-9.22353 9.7309-9.74509 1.966-.30021 3.9076.67651 5.4563 2.66179-1.6246-.4386-3.1109-.3791-4.5796-.0858-.542.1079-1.1571.3805-1.7221.7858-1.0176.7277-1.8752 1.8829-1.859 3.2761.0041.3099.0515.6308.1491.9615.3929 1.3239 1.4023 2.0129 2.5581 2.3297.1449.0401.2913.0733.4389.1024.0746.0138.1491.0277.2236.0387.149.0236.2994.0415.4498.0554.0746.0069.1504.0124.2249.018.7507.047 1.4877-.0125 2.1002-.1149.7343-.1217 1.4118-.3223 1.9714-.534.9335-.3528 1.5391-.736 1.5324-.8384 0 0 0 0 0-.0027 0-.0014.0027-.0042.0027-.0056 0-.0152-.0041-.0276-.0122-.0387-.0068-.0111-.0163-.0208-.0271-.0291-.0529-.0498-.1477-.0525-.2006-.0498-.0122 0-.023 0-.023 0l-1.7031.0263s-3.5607.0803-3.7084-1.6117c-.0176-.1978.0149-.3763.0894-.5382.2466-.5368.9512-.8716 1.7885-1.0279.252-.047.5149-.0775.7818-.0927.859-.0484 1.7505.065 2.386.3168.7642.303 1.237 1.1082 1.5161 1.9659.126.3902.2128.7914.2683 1.1608.0908.6156.0881 1.1441.0583 1.3917-.0055.0401-.0068.0817-.0068.1259 0 .1743.0149.4137.0664.6267.1436.5839.4403 1.194.4972 1.4582.0136.0664.0231.1314.0271.1923.0204.3099-.0758.5617-.214.7595-.0271.0401-.057.0775-.0881.1121-.2737.3182-.6328.4648-.6328.4648.0028-.0318.0028-.0622.0041-.094.0041-.2491-.0434-.4953-.0867-.671-.0393-.1536-.0759-.2532-.0759-.2532s-.1355.9657-.4769 1.7418c-.1599.3638-.4702 1.1718-.7344 2.0586-.0352.1176-.0704.2379-.1029.3583-.0827.3002-.1586.6032-.2195.8965-.084.4109-.1396.7996-.145 1.133-.0027.1425.0041.274.0217.3929.0298.2048.0447.3777.0474.5216.0095.386-.0596.5783-.1138.6696-.0339.0567-.0624.0733-.0624.0733s-.004.0056-.0149.0139c-.0243.0235-.0799.0747-.172.1466-.0176.0152-.038.0304-.0596.0457-.1694.13-.4323.3112-.8076.5201-.7492.4178-1.0785.1301-1.0785.1301-.2615-.2421-.4024-.3251-.5392-.35-.0813-.0152-.1626-.0097-.2656-.0056-.1382.0056-.3577.0056-.6151-.0055-.0637-.0028-.1301-.0055-.1992-.0097-.2046-.0124-.4227-.0304-.6355-.0581-.1449-.0166-.2723-.0567-.3834-.1134-.0745-.0388-.1423-.0844-.2046-.137-.1233-.1038-.2235-.2324-.3048-.3708-.1409-.2407-.225-.5118-.2791-.7346-.1247-.5105.0121-.8301-1.7926-1.4748-.3645-.13-.6693-.2877-.9227-.4565-.4566-.303-.7493-.6378-.9295-.9062-.0406-.0595-.0745-.1148-.1043-.1674 0 0-.0623-.13-.107-.2269-.0271-.0581-.0488-.1051-.0488-.1051-.168-.469-.2913-.92-.3794-1.3433-.1463-.7056-.1964-1.3337-.2005-1.8428-.0054-.7125.0786-1.1926.1152-1.3226.0054-.0194.0095-.0304.0122-.0346-.0163.0125-.1139.0803-.2629.2283-.2994.2974-.8129.9172-1.3278 2.0627-.0515.1149-.103.2338-.1545.3597-.8508 2.2703.2615 4.3911.2615 4.3911-.0975-.552-.1382-1.0417-.1382-1.4747 0-1.2258.3157-1.9867.5352-2.3658.1165-.2006.2046-.296.2046-.296s.0569 1.2396.7601 2.6535c.0393.0788.08.1521.122.2227.0135.0235.0271.0443.042.0664.0298.047.0596.0927.0907.1356.0149.0221.0312.0443.0461.0664.042.0567.084.1107.1274.1605.6828.7858 1.5676.8619 2.3182 1.1455.6314.2393.7168.5769.8523 1.0611.0609.22.1327.4718.2709.7581.1599.4012.4634.6088.8672.7181.4024.1079.9051.1176 1.4606.1217.7479.0042.7777 0 .9389.0982.0231.0139.0488.0305.08.0484.294.2574.2886.3348.8969.487.1138.0291.2656.0166.4404-.0235.1165-.0263.2425-.0664.3753-.1162s.2696-.1093.4078-.1757c.2764-.1328.5569-.2919.8035-.4524.1233-.0802.2384-.1619.34-.2407.1532-.1176.2764-.2297.355-.3251.1572-.1909.2114-.5119.2155-.8758 0-.0608 0-.1231-.0014-.1853-.0054-.1882-.0203-.3847-.0393-.5783-.0366-.386-.0867-.7609-.0962-1.039-.0068-.2089.0732-.5921.1911-1.0362.065-.2463.1422-.5119.2235-.7762.2913-.9504.6287-1.8856.6287-1.8856s1.0257-.5313 1.5256-1.2714c.1152-.1702.2033-.3528.2439-.5423.1436-.8218-.71-2.3893-.6991-2.6106.0677-1.4208-.0718-2.1818-.0718-2.1818.0298.007.0596.0125.0894.018.4945.4068 1.3942 1.2548 3.0147 1.0058.5311-.0816 1.0202-.0968 1.4646-.0816 1.9172.065 3.4889 1.2091 3.4889 1.2091 2.0432-9.2595-5.8925-8.0227-9.4681-9.0783-4.6514-1.37235-4.5159-5.64034-4.5159-5.78283-.0068-1.46509 1.3048-4.050784 3.5146-4.43677-1.6164.0152181-4.2314 2.04061-4.2801 4.73698-.0475.03874-.0962.07747-.1491.12174-1.4646 1.21192-6.0618 3.78793-17.08945 1.54118l-1.02837-.20752-.2073 1.02238c-.08401.35417-1.695 7.38074-.23169 15.98594.79804 4.6968 2.36431 8.9842 4.65551 12.7694-.0258.3527-.0637.7138-.1193 1.0832-.0867.5797-.2141 1.1746-.39832 1.7695-.15175.5699-.37125 1.5052-1.01483 2.2785-.68423.8232-.6639.9518-1.16657 2.1665 0 0-1.24246.8592-1.36982 2.0987 0 0 .04878.386.64223.6683 0-.0014-.00136-.0042-.00271-.0056 0-.0014-.00136-.0027-.00271-.0041z"/><path d="m32.8953 31.4499c-.0231-.0484-.0935-.0401-.103.0138-.042.2269-.1694.7374-.5488 1.5467-.485 1.0349.1802 1.5606.916 1.674.0555.0083.0853-.0636.0406-.0996-.2534-.2061-.6544-.6917-.3875-1.5744.2778-.9158.1761-1.3668.084-1.5605z"/><path d="m26.0799 22.8243c.0691.1204.1707.1923.4579.1439.1138-.0194.1721-.0623.2141-.1107.0704-.0788.0948-.1702.2466-.1729.0637-.0014.1328.0069.2032.0221.0461.0097.0935.0221.1396.0374.023.0069.046.0152.0691.0221.2262.0789.4159.1868.4159.1868l.1775-.3376c-.004-.0124-.023-.0263-.0542-.0443-.0623-.0346-.1748-.0844-.3157-.1784-.0704-.0471-.149-.1038-.2317-.1757-.3319-.2864-.5351-.9685-1.3372-.8522-.8008.1175-1.1192.5935-1.3143.9186-.1951.3237-.1165.5713.1233.5063.2886-.0775.3658-.5506.8847-.6876 0 0 .3862-.0525.3334.2518 0 0-.08.35-.0122.4676z"/></g></svg>