<svg fill="none" height="41" viewBox="0 0 51 41" width="51" xmlns="http://www.w3.org/2000/svg"><g fill="#fcfeea"><path d="m25.9538 17.8007c4.8622-.0901 8.7308-4.1111 8.6408-8.98103-.0899-4.86998-4.1044-8.7448208-8.9666-8.654708-4.8622.090112-8.7308 4.111058-8.6409 8.981038.09 4.87 4.1045 8.7448 8.9667 8.6547z"/><path d="m32.2869 16.1143c-1.678 1.8221-4.6354 3.6415-8.4317 3.6415-2.9435 0-5.4799-1.1454-7.0943-2.4212-9.61403 1.0095-16.7609 2.4434-16.7609 2.4434v3.8995l50.9972-.0055v-8.0376s-8.739-.0554-18.7103.4799z"/><path d="m6.05864 35.0803v4.7509h-6.05864v-12.6359h6.05864v5.6856h.036l3.56651-5.6856h7.26315l-5.3193 6.5315 5.0175 6.1072h-6.93089l-3.59144-4.7509h-.04153z"/><path d="m50.9972 39.3053c-1.4288.4382-3.309.6961-4.9898.6961-5.9922 0-10.3922-1.7056-10.3922-6.6674 0-4.4847 4.2643-6.4317 10.0959-6.4317 1.6199 0 3.6773.1803 5.2889.6934l-.0028 4.3433c-1.1935-.7239-2.3869-1.176-4.0954-1.176-2.2235 0-4.4471 1.0955-4.4471 2.6875 0 1.5948 2.2125 2.6903 4.4471 2.6903 1.6808 0 2.9019-.466 4.0954-1.1566z"/><path d="m17.916 27.1914h12.2447c3.1816 0 4.2227 1.2397 4.2227 3.1673 0 2.1578-1.9272 3.098-3.9043 3.2034v.036c2.0325.1581 4.0123.3883 4.0123 2.9371 0 1.6641-1.0439 3.2921-4.5412 3.2921h-12.0342zm6.0559 10.0677h3.1594c1.1852 0 1.5867-.4909 1.5867-1.2176 0-.7266-.407-1.248-1.5728-1.248h-3.1733zm0-4.7121h3.0182c1.1658 0 1.6227-.4743 1.6227-1.1982 0-.832-.4597-1.248-1.5396-1.248h-3.1013z"/></g></svg>