<svg fill="none" height="60" viewBox="0 0 60 60" width="60" xmlns="http://www.w3.org/2000/svg"><g fill="#fcfeea"><path d="m4.2356 52.0103 1.43332.5781-2.50769 3.1714 2.59681 3.6959-1.53482.544-2.71068-4.1179h-.02228v3.9398l-1.49026.0878v-7.7235l1.49026-.1781v3.5398h.02228l2.72058-3.5398z"/><path d="m7.19336 59.9114v-7.7236l1.49026-.178v7.8113l-1.49026.0878z"/><path d="m11.0469 59.9992v-7.9894h.0346l4.6292 4.618v-4.44l1.4903-.178v7.9894h-.0322l-4.6292-4.5619v4.3838l-1.4902.1781z"/><path d="m19.4727 59.8227v-7.6332h4.1662l.2476 1.4124h-2.9236v1.5247h2.3493v1.4125h-2.3493v1.8711h3.2875l-.4753 1.4125z"/><path d="m27.4805 55.695h.3614c.8912 0 1.3789-.322 1.3789-1.0465s-.4852-1.0466-1.3789-1.0466h-.3614zm0 4.1277-1.4903.0903v-7.7235h2.2131c1.7725 0 2.5077 1.4124 2.5077 2.4029 0 1.5466-1.0842 2.5151-2.6314 2.5151-.203 0-.3936-.0122-.5991-.0341z"/><path d="m36.1203 58.5004c1.3788 0 2.5299-1.1369 2.5299-2.4932 0-1.3564-1.1511-2.4932-2.5299-2.4932-1.3789 0-2.53 1.1344-2.53 2.4932s1.1511 2.4932 2.53 2.4932zm0-6.4867c2.2354 0 4.087 1.7808 4.087 3.9935 0 2.2126-1.8516 3.9959-4.087 3.9959s-4.0871-1.7808-4.0871-3.9959 1.8517-3.9935 4.0871-3.9935z"/><path d="m42.1197 59.8211v-7.6333l1.4902-.178v6.3988h2.8221l-.3738 1.4125h-3.941z"/><path d="m48.0469 59.9114v-7.7236l1.4902-.178v7.8113l-1.4902.0878z"/><path d="m52.4726 57.7646c.3838.422.6561.8221 1.4903.8221.5322 0 .9927-.4123.9927-.8782 0-1.5125-3.3766-.6562-3.3766-3.3617 0-1.4564 1.1065-2.337 2.6414-2.337.7674 0 1.7056.422 2.1685 1.0343l-.9258 1.0685c-.359-.3781-.9135-.6904-1.3319-.6904-.5198 0-.9926.222-.9926.9222 0 1.3027 3.3766.3684 3.3766 3.3714 0 1.3905-1.1759 2.281-2.6315 2.281-.9704 0-1.7849-.4001-2.4384-1.1905l1.0273-1.0441z"/><path d="m57.9682 51.2844c.1213 0 .2055-.0244.2055-.161 0-.1367-.151-.1391-.255-.1391h-.1906v.3001h.2376zm-.2376.7367h-.2773v-1.2466h.4753c.3293 0 .5199.0903.5199.3781 0 .2269-.1387.3172-.3491.3294l.3268.5391h-.2797l-.2921-.5269h-.1263v.5269zm.1931-1.493c-.4654 0-.8368.3562-.8368.8709 0 .5148.3689.8709.8368.8709.4678 0 .8367-.3561.8367-.8709 0-.5147-.3788-.8709-.8367-.8709zm-1.1932.8709c0-.7123.5718-1.1392 1.1932-1.1392.6213 0 1.1932.4244 1.1932 1.1392s-.5719 1.1393-1.1932 1.1393c-.6214 0-1.1932-.4245-1.1932-1.1393z"/><path d="m14.7246 42.3769 13.9743-9.5824 13.9742 9.5824-4.9287-16.0569 13.6598-10.4826-17.1156.0048-5.5897-15.8422zm12.2884-31.8504.8194-2.48096 2.3443.75381-.8194 2.48095-2.3443-.7513zm-1.6907 5.1133.8194-2.481 2.3443.7538-.8219 2.481-2.3443-.7538zm-1.6908 5.1132.8194-2.481 2.3443.7514-.8194 2.481-2.3443-.7538zm-1.6908 5.1132.8194-2.481 2.3443.7514-.8194 2.4834-2.3443-.7513zm-1.6883 5.1108.8194-2.481 2.3443.7538-.8218 2.481-2.3444-.7538zm-1.6932 5.1133.8218-2.481 2.3468.7538-.8218 2.481-2.3468-.7514z"/><path d="m18.1406 25.1896 3.0771-9.3458h-15.12786l12.04836 9.3458z"/></g></svg>