<svg fill="none" height="28" viewBox="0 0 61 28" width="61" xmlns="http://www.w3.org/2000/svg"><path d="m59.1089 1.53543v-.47202h.3138c.219 0 .3445.08645.3445.23601 0 .11801-.0735.23601-.3138.23601zm1.1082.96599-.1882-.34304c-.1669-.3005-.2097-.34303-.3552-.39792.2817-.04253.4499-.22503.4499-.48299 0-.25797-.1668-.472021-.522-.472021h-.8358v1.697341h.3445v-.69842h.0627c.1469 0 .2096.02196.2724.08645.0734.07546.1669.21542.2296.33343l.1362.27992h.4072zm-.8158-2.180338c.7103-.002744 1.2871.585906 1.2911 1.315888.0027.72998-.5701 1.32275-1.2804 1.32686-.7103 0-1.2844-.59276-1.2844-1.32274 0-.728613.5755-1.318636 1.2844-1.320008zm0-.321082c-.8825 0-1.5995.734098-1.5995 1.64246 0 .90836.7143 1.64383 1.5982 1.64383h.0013c.8826 0 1.5982-.73684 1.5982-1.64383s-.7156-1.64246-1.5982-1.64246zm-8.7051 1.76183c-2.8559-.11251-5.6036 1.13202-7.4514 3.37274-.1896-.4336-.4473-.83289-.7624-1.18142-1.3271-1.53543-3.4487-2.25581-6.3019-2.25581s-5.1002.8919-6.7091 2.29835c-.8358-1.39685-2.8425-2.3203-5.2457-2.3203-3.1349 0-6.5623.46241-8.601 3.8228-.0414-1.21298-.1562-1.85789-.8158-2.57826-.8051-.86994-2.1109-1.10595-3.3752-1.10595-2.20703-.06175-4.26048 1.15946-5.30856 3.1573-1.81847 2.97619-6.228445 12.79252-6.1243036 17.55112.0627517 3.0722 2.0694736 5.2841 5.6543336 5.3706 2.80113.0754 5.00543-.6984 6.40603-2.1474 1.4326 1.497 3.4139 2.3038 5.4554 2.2228 2.5608 0 5.1202-.7944 6.6356-2.5137 1.2858 1.6109 3.2925 2.5563 5.8733 2.5453 3.2404-.0206 6.2939-1.5642 8.2873-4.1892 1.0654 2.9749 3.7624 4.1563 6.709 4.1563 6.4581 0 9.3007-4.5652 11.6625-11.7813.5221-1.6218 1.243-4.3387 1.3592-6.61646.1882-3.79124-1.3685-7.80751-7.3473-7.80751zm-42.96222 18.15077c3.34452-.601 4.18032.6449 4.07622 1.7824-.3138 3.4372-3.38595 4.2097-6.06157 4.1452-1.92261-.0425-3.66764-.9563-3.71971-3.2643-.08412-4.0382 3.92932-13.38253 5.81054-16.47534.87719-1.47094 1.93329-2.20229 3.62624-2.20229 1.693 0 2.0067.85896 1.9854 1.86886-.0628 2.69626-4.31655 10.92227-5.71578 14.13447v.011zm10.87872-3.1793c-.3751 1.0717-.6996 2.1611-.972 3.2643 1.0788-.321 2.2004-.4692 3.3232-.4404 1.5995.0425 2.6329.719 2.6329 2.0829 0 3.3082-3.5528 4.2742-6.0295 4.2852-2.7063 0-5.0896-1.5889-5.0896-4.6296 0-3.5758 1.8813-8.9889 3.6583-12.58669 2.163-4.43615 4.3887-5.01519 8.2032-5.01519 1.6716 0 3.6048.72998 3.6048 2.36283 0 2.25581-1.8598 3.11477-3.6996 3.2218-.7945.05351-2.0068.09605-2.7277.04253 0 0-.6169.96602-1.2644 2.67432 3.4166-.494 4.8599.3005 4.2845 2.3299-.7838 2.7388-3.0936 2.9213-5.9254 2.4054zm16.8041-8.53885c-.9306 0-1.526.601-1.9853 1.24591-.9827 1.43934-3.1349 7.16394-3.4701 9.51584-.2189 1.6109.45 1.9333 1.191 1.9333 1.1909 0 2.5181-1.2884 2.9787-3.4152 0 0-2.2671-.0535-1.6409-2.1159.6062-1.9978 1.7557-2.4273 3.6583-2.5137 3.7517-.1606 3.3752 2.6852 3.0828 4.2097-.9826 4.9301-4.3886 8.8819-9.2178 8.8819-3.3018 0-5.3606-1.8798-5.3606-5.3377 0-2.4698 1.191-6.3365 2.1429-8.6129 2.0067-4.83271 4.1176-8.19446 9.4782-8.19446 3.2297 0 5.7691 1.18141 5.3926 4.29619-.2723 2.26677-1.3792 3.60877-3.3966 3.75967-.5647.0535-2.8638 0-2.1001-2.2558.2723-.7835.3765-1.39685-.7531-1.39685zm20.2742 4.08075c-.5648 2.8994-1.8399 6.3366-3.2297 8.8929-2.2578 4.1891-5.0055 4.7682-7.4087 4.7366-2.3926-.0315-5.1003-.9344-5.1203-4.7366-.0107-2.7278 1.1389-6.5836 2.1108-9.1069 1.693-4.58575 3.4274-8.3125 8.9041-8.24801 6.3753.07547 5.2458 5.90709 4.7451 8.45241v.011zm-4.5569-2.86777c-.0627 1.75087-2.5608 8.76387-3.4486 10.31027-.3872.6655-.8158 1.224-1.5995 1.224-.6796 0-.9934-.505-1.0134-1.0744-.0414-1.5793 2.7797-9.5049 3.7517-10.7933.4179-.68745.8986-.79448 1.4527-.7835.8051 0 .8772.601.8571 1.11693z" fill="#fcfeea"/></svg>