<svg fill="none" height="28" viewBox="0 0 71 28" width="71" xmlns="http://www.w3.org/2000/svg"><g clip-rule="evenodd" fill="#fcfeea" fill-rule="evenodd"><path d="m3.25967 0h7.13143l-2.94897 17.7803s-.91169 4.3773 2.19817 4.3773h8.204l-.9651 5.8366h-8.20436s-5.13119.3047-7.45283-3.513c-2.037662-3.3508-.911692-7.35-.911692-7.35z"/><path d="m10.1237 11.0237s1.8796-2.39022 7.4533-2.81013c5.737-.43236 9.1678 3.02683 9.1149 5.94453-.0534 2.9723-4.2904 6.6479-10.1875 6.7555-5.8983.1084-7.61378-2.8101-7.61378-4.8097s2.14478-6.48488 8.36408-5.5664c0 0-2.2515 3.3505-2.091 5.0257.1609 1.6756 1.126 1.6756 1.8768 1.6756.7507 0 2.52-.3244 2.7346-3.621.1394-2.1389-2.2065-4.226-4.3433-3.94499-1.2327.16178-3.2704.43199-5.3081 1.35089zm43.3087 0s1.8795-2.39022 7.4532-2.81013c5.737-.43236 9.1679 3.02683 9.1149 5.94453-.0538 2.9723-4.29 6.6479-10.1875 6.7555-5.8983.1084-7.6141-2.8101-7.6141-4.8097s2.1448-6.48488 8.3649-5.5664c0 0-2.252 3.3505-2.0911 5.0257.161 1.6756 1.1256 1.6756 1.8764 1.6756s2.5204-.3244 2.7343-3.621c.1394-2.1389-2.2062-4.226-4.343-3.94499-1.2331.16178-3.2704.43199-5.308 1.35089zm-23.6303-7.8362h7.1848l-.7679 4.97187h3.3421l-.858 6.21473h-3.4492l-.7866 4.3236s-.7508 2.8642 2.091 2.8642h2.5742l-1.1801 6.1072h-3.8603s-3.8606.3782-5.8983-3.5668c-1.7783-3.4436-.697-7.5664-.697-7.5664z"/><path d="m42.3114 3.19056h7.1848l-.7687 4.97187h3.3429l-.8579 6.21477h-3.4493l-.7866 4.3235s-.7508 2.8643 2.0911 2.8643h9.9214l-1.1793 6.1072h-11.2092s-3.8598.3781-5.8983-3.5669c-1.7783-3.4435-.697-7.5664-.697-7.5664zm21.4194 1.20714c0-.71015.5711-1.23364 1.2462-1.23364.6691 0 1.2399.52349 1.2399 1.23364 0 .71657-.5712 1.24006-1.2399 1.24006-.6755-.00041-1.2462-.52389-1.2462-1.24006zm1.2462 1.03371c.5556 0 .9934-.43837.9934-1.03371 0-.58571-.4382-1.0273-.9934-1.0273-.5616 0-.9997.44159-.9997 1.0273 0 .59534.4377 1.03371.9997 1.03371zm-.2601-.31754h-.2139v-1.42633h.5385c.3346 0 .5003.12445.5003.40546 0 .25532-.1585.36652-.3664.39302l.4022.62785h-.2405l-.3736-.61822h-.2466zm.2569-.80128c.182 0 .3438-.01324.3438-.23243 0-.17664-.1586-.20916-.3079-.20916h-.2924v.44159z"/></g></svg>