<svg width="52" height="40" viewBox="0 0 52 40" fill="none" xmlns="http://www.w3.org/2000/svg">
  <path
    d="M9.45739 39.7793V37.1302C9.45739 36.1325 8.81469 35.4614 7.77925 35.4525C7.23474 35.4437 6.67239 35.6115 6.27963 36.2031C5.98507 35.7351 5.5209 35.4525 4.86928 35.4525C4.41404 35.4525 3.96773 35.585 3.6196 36.0795V35.5585H2.69127V39.7793H3.62853V37.4393C3.62853 36.7064 4.03914 36.3179 4.6729 36.3179C5.30667 36.3179 5.60124 36.7152 5.60124 37.4305V39.7793H6.53849V37.4393C6.53849 36.7064 6.96696 36.3179 7.58287 36.3179C8.19878 36.3179 8.52013 36.7152 8.52013 37.4305V39.7793H9.45739ZM23.3288 35.5585H21.8113V34.2781H20.8741V35.5585H20.0082V36.3974H20.8741V38.3223C20.8741 39.3024 21.2579 39.8852 22.3559 39.8852C22.7575 39.8852 23.2217 39.7616 23.5163 39.5585L23.2485 38.7726C22.9718 38.9316 22.6683 39.011 22.4273 39.011C21.9631 39.011 21.8113 38.7285 21.8113 38.3046V36.3974H23.3288V35.5585ZM31.2464 35.4525C30.7108 35.4525 30.3627 35.6998 30.1217 36.0706V35.5585H29.2023V39.7793H30.1306V37.4128C30.1306 36.7152 30.4341 36.3267 31.0411 36.3267C31.2286 36.3267 31.4249 36.3532 31.6213 36.4327L31.907 35.5673C31.7017 35.4879 31.4339 35.4525 31.2464 35.4525ZM19.2763 35.894C18.83 35.6026 18.2141 35.4525 17.5357 35.4525C16.4556 35.4525 15.7593 35.9647 15.7593 36.8035C15.7593 37.4923 16.2771 37.9161 17.2322 38.0486L17.6696 38.1104C18.1784 38.181 18.4194 38.3135 18.4194 38.5519C18.4194 38.8786 18.0802 39.064 17.4464 39.064C16.8126 39.064 16.3395 38.8609 16.0271 38.6225L15.5897 39.3377C16.0985 39.7086 16.7412 39.8852 17.4375 39.8852C18.6693 39.8852 19.3834 39.3113 19.3834 38.5077C19.3834 37.766 18.821 37.3775 17.8927 37.245L17.4553 37.1832C17.0536 37.1302 16.7323 37.0508 16.7323 36.7682C16.7323 36.4592 17.0358 36.2737 17.5446 36.2737C18.0891 36.2737 18.6157 36.4768 18.8746 36.6358L19.2763 35.894ZM44.1404 35.4525C43.6048 35.4525 43.2567 35.6998 43.0157 36.0706V35.5585H42.0963V39.7793H43.0246V37.4128C43.0246 36.7152 43.3281 36.3267 43.9351 36.3267C44.1226 36.3267 44.3189 36.3532 44.5153 36.4327L44.801 35.5673C44.5957 35.4879 44.3279 35.4525 44.1404 35.4525ZM32.1792 37.6689C32.1792 38.9492 33.0808 39.8852 34.4554 39.8852C35.0981 39.8852 35.5266 39.7439 35.9907 39.3819L35.5444 38.6402C35.1963 38.8874 34.8303 39.0199 34.4286 39.0199C33.6878 39.011 33.1432 38.4812 33.1432 37.6689C33.1432 36.8565 33.6878 36.3267 34.4286 36.3179C34.8303 36.3179 35.1963 36.4503 35.5444 36.6976L35.9907 35.9559C35.5266 35.5938 35.0981 35.4525 34.4554 35.4525C33.0808 35.4525 32.1792 36.3885 32.1792 37.6689ZM40.8734 37.6689V35.5585H39.9451V36.0706C39.6505 35.6909 39.2042 35.4525 38.5972 35.4525C37.4011 35.4525 36.4638 36.3797 36.4638 37.6689C36.4638 38.9581 37.4011 39.8852 38.5972 39.8852C39.2042 39.8852 39.6505 39.6468 39.9451 39.2671V39.7793H40.8734V37.6689ZM37.4189 37.6689C37.4189 36.9272 37.9099 36.3179 38.7132 36.3179C39.5166 36.3179 39.9986 36.9007 39.9986 37.6689C39.9986 38.4371 39.4809 39.0199 38.7132 39.0199C37.9456 39.0199 37.4189 38.4106 37.4189 37.6689ZM26.2165 35.4525C24.9668 35.4525 24.092 36.3532 24.092 37.6689C24.092 38.9845 25.0025 39.8852 26.2789 39.8852C26.9216 39.8852 27.5108 39.7263 28.0285 39.2936L27.5733 38.6137C27.2162 38.8962 26.761 39.0552 26.3325 39.0552C25.7344 39.0552 25.1899 38.7815 25.056 38.0221H28.2249C28.2338 37.9073 28.2427 37.7925 28.2427 37.6689C28.2338 36.3532 27.4126 35.4525 26.2165 35.4525ZM26.1986 36.2737C26.7967 36.2737 27.1805 36.6446 27.2787 37.298H25.065C25.1632 36.6887 25.5381 36.2737 26.1986 36.2737ZM49.4828 37.6689V33.8631H48.5545V36.0706C48.2599 35.6909 47.8136 35.4525 47.2066 35.4525C46.0105 35.4525 45.0732 36.3797 45.0732 37.6689C45.0732 38.9581 46.0105 39.8852 47.2066 39.8852C47.8136 39.8852 48.2599 39.6468 48.5545 39.2671V39.7793H49.4828V37.6689ZM46.0283 37.6689C46.0283 36.9272 46.5193 36.3179 47.3226 36.3179C48.126 36.3179 48.608 36.9007 48.608 37.6689C48.608 38.4371 48.0903 39.0199 47.3226 39.0199C46.555 39.0199 46.0283 38.4106 46.0283 37.6689ZM14.6837 37.6689V35.5585H13.7554V36.0706C13.4608 35.6909 13.0145 35.4525 12.4075 35.4525C11.2114 35.4525 10.2741 36.3797 10.2741 37.6689C10.2741 38.9581 11.2114 39.8852 12.4075 39.8852C13.0145 39.8852 13.4608 39.6468 13.7554 39.2671V39.7793H14.6837V37.6689ZM11.2293 37.6689C11.2293 36.9272 11.7202 36.3179 12.5236 36.3179C13.3269 36.3179 13.8089 36.9007 13.8089 37.6689C13.8089 38.4371 13.2912 39.0199 12.5236 39.0199C11.7559 39.0199 11.2293 38.4106 11.2293 37.6689ZM51.027 39.1656C51.0851 39.1656 51.1431 39.1744 51.1966 39.1965C51.2502 39.2185 51.2948 39.2495 51.335 39.2848C51.3752 39.3245 51.4064 39.3687 51.4287 39.4172C51.451 39.4658 51.4644 39.5232 51.4644 39.5806C51.4644 39.638 51.451 39.6909 51.4287 39.7439C51.4064 39.7925 51.3752 39.8411 51.335 39.8764C51.2948 39.9161 51.2502 39.9426 51.1966 39.9647C51.1431 39.9868 51.0895 40 51.027 40C50.9646 40 50.911 39.9868 50.8574 39.9647C50.8039 39.9426 50.7592 39.9117 50.7191 39.8764C50.6789 39.8366 50.6477 39.7925 50.6254 39.7439C50.603 39.6954 50.5896 39.638 50.5896 39.5806C50.5896 39.5232 50.603 39.4702 50.6254 39.4172C50.6477 39.3642 50.6789 39.3201 50.7191 39.2848C50.7592 39.245 50.8039 39.2185 50.8574 39.1965C50.911 39.1744 50.969 39.1656 51.027 39.1656ZM51.027 39.9117C51.0717 39.9117 51.1163 39.9029 51.1565 39.8852C51.1966 39.8675 51.2323 39.8455 51.2591 39.8146C51.2904 39.7837 51.3127 39.7483 51.3305 39.7086C51.3484 39.6689 51.3573 39.6247 51.3573 39.5806C51.3573 39.5364 51.3484 39.4923 51.3305 39.4525C51.3127 39.4128 51.2904 39.3775 51.2591 39.3466C51.2279 39.3157 51.1966 39.2936 51.1565 39.2759C51.1163 39.2583 51.0761 39.2495 51.027 39.2495C50.9779 39.2495 50.9378 39.2583 50.8976 39.2759C50.8574 39.2936 50.8217 39.3157 50.7905 39.3466C50.7593 39.3775 50.7369 39.4128 50.7191 39.4525C50.7012 39.4923 50.6923 39.5364 50.6923 39.5806C50.6923 39.6247 50.7012 39.6689 50.7191 39.7086C50.7369 39.7483 50.7593 39.7837 50.7905 39.8146C50.8217 39.8455 50.8574 39.8675 50.8976 39.8852C50.9378 39.9029 50.9824 39.9117 51.027 39.9117ZM51.0538 39.3863C51.1029 39.3863 51.1431 39.3996 51.1699 39.4216C51.1966 39.4437 51.21 39.4746 51.21 39.5144C51.21 39.5453 51.2011 39.5717 51.1788 39.5938C51.1565 39.6159 51.1252 39.6291 51.0851 39.6336L51.2145 39.7793H51.1118L50.9913 39.6336H50.9512V39.7793H50.8664V39.3907H51.0494L51.0538 39.3863ZM50.9556 39.4614V39.5673H51.0538C51.0538 39.5673 51.094 39.5673 51.1074 39.5541C51.1208 39.5453 51.1252 39.532 51.1252 39.5144C51.1252 39.4967 51.1208 39.4834 51.1074 39.4746C51.094 39.4658 51.0761 39.4614 51.0538 39.4614H50.9556ZM24.5651 28.8079C24.6901 28.9139 24.824 29.0199 24.9534 29.1258C22.4049 30.8035 19.3477 31.7837 16.0584 31.7837C7.19458 31.7881 0 24.6711 0 15.894C0 7.117 7.19458 0 16.0673 0C19.3566 0 22.4139 0.980132 24.9623 2.65784C24.8329 2.7638 24.699 2.86534 24.574 2.97572C20.7893 6.234 18.6157 10.9448 18.6157 15.894C18.6157 20.8433 20.7848 25.5541 24.574 28.8124L24.5651 28.8079ZM35.9282 0C32.6389 0 29.5817 0.980132 27.0332 2.65784C27.1626 2.7638 27.2965 2.86534 27.4215 2.97572C31.2062 6.234 33.3798 10.9404 33.3798 15.894C33.3798 20.8477 31.2107 25.5541 27.426 28.8124C27.301 28.9183 27.1671 29.0243 27.0377 29.1302C29.5861 30.8079 32.6434 31.7881 35.9327 31.7881C44.8054 31.7881 52 24.6711 52 15.894C52 7.117 44.801 0 35.9282 0ZM25.9978 3.40397C25.7925 3.56291 25.5872 3.73068 25.3908 3.90287C22.0033 6.81678 19.861 11.1082 19.861 15.894C19.861 20.6799 22.0033 24.9713 25.3908 27.8852C25.5872 28.0574 25.7925 28.2208 25.9978 28.3841C26.2031 28.2208 26.4084 28.0574 26.6048 27.8852C29.9923 24.9713 32.1346 20.6799 32.1346 15.894C32.1346 11.1082 29.9923 6.81678 26.6048 3.90287C26.4084 3.73068 26.2031 3.56733 25.9978 3.40397Z"
    fill="#FCFEEA" />
</svg>
  