<svg fill="none" height="20" viewBox="0 0 94 20" width="94" xmlns="http://www.w3.org/2000/svg"><g fill="#fcfeea"><path d="m39.0928 3.99826v12.00004h-2.0883v-9.4167h-.0278l-3.731 9.4167h-1.3922l-3.8146-9.4167h-.0278v9.4167h-1.9213v-12.00004h3.0072l3.4526 8.88894h.0556l3.6476-8.88894zm1.7263.91667c0-.33333.1114-.61111.362-.83333s.529-.33334.8631-.33334c.362 0 .6683.11112.891.33334.2228.22222.362.5.362.83333s-.1114.61111-.362.83333c-.2506.22223-.529.33334-.891.33334-.3619 0-.6404-.11111-.8631-.33334-.2228-.25-.362-.52777-.362-.83333zm2.2553 2.47222v8.61115h-2.0325v-8.61115zm6.1535 7.13885c.3063 0 .6404-.0555 1.0023-.2222.362-.1389.6961-.3333 1.0024-.5555v1.8889c-.3341.1944-.6961.3333-1.1137.4166-.4177.0834-.8632.1389-1.3644.1389-1.2808 0-2.311-.3889-3.0906-1.1944-.8075-.8056-1.1973-1.8334-1.1973-3.0556 0-1.3889.4177-2.52777 1.2251-3.41666.8075-.88889 1.9491-1.33333 3.4526-1.33333.3899 0 .7797.05555 1.1416.13889.3898.08333.6961.22222.9189.33333v1.94444c-.3063-.22222-.6404-.41666-.9467-.52777-.3341-.11111-.6683-.19445-1.0024-.19445-.8074 0-1.4478.25-1.949.77778-.5012.52777-.724 1.22227-.724 2.11107 0 .8612.2506 1.5556.724 2.0278.4733.4722 1.1137.7222 1.9212.7222zm7.7683-7.27774c.1671 0 .3063 0 .4455.02778.1393.02778.2506.05556.3342.08334v2.05555c-.1114-.08333-.2506-.16667-.4734-.22222-.2227-.05556-.4455-.11111-.7518-.11111-.5011 0-.9188.22222-1.2529.63889-.3341.41671-.529 1.05551-.529 1.94441v4.3334h-2.0326v-8.61115h2.0326v1.36111h.0278c.1949-.47222.4733-.83333.8353-1.11111.3898-.25.8353-.38889 1.3643-.38889zm.891 4.58334c0-1.4167.4177-2.55556 1.1973-3.38889.8075-.83333 1.9212-1.25 3.3412-1.25 1.3365 0 2.3946.38889 3.1464 1.19444.7517.80556 1.1416 1.88885 1.1416 3.25005 0 1.3888-.4177 2.5-1.1973 3.3333-.8075.8333-1.8934 1.25-3.2856 1.25-1.3365 0-2.3945-.3889-3.1741-1.1667-.7796-.8055-1.1695-1.8889-1.1695-3.2222zm2.1161-.0833c0 .8889.195 1.5833.6126 2.0555.4177.4722 1.0024.7222 1.7542.7222.7239 0 1.3086-.2222 1.6984-.7222.3898-.4722.5847-1.1666.5847-2.1111 0-.9167-.1949-1.6111-.5847-2.1111-.3898-.47222-.9745-.72222-1.6706-.72222-.7518 0-1.3087.24999-1.7263.74999-.4733.52783-.6683 1.22223-.6683 2.13893zm9.7453-2.08337c0 .27778.0835.52777.2784.69447.195.1666.5848.3611 1.2252.6111.8074.3333 1.3921.6944 1.6984 1.0833.3341.4167.5012.8889.5012 1.4722 0 .8056-.3063 1.4445-.9467 1.9445-.6125.5-1.4757.7222-2.5337.7222-.362 0-.7518-.0555-1.1973-.1389-.4455-.0833-.8075-.1944-1.1138-.3333v-2c.362.25.7797.4722 1.1973.6111.4177.1389.8075.2222 1.1694.2222.4455 0 .8075-.0555 1.0024-.1944.2228-.1389.3341-.3334.3341-.6389 0-.2778-.1113-.5-.3341-.7222-.2227-.1945-.6682-.4167-1.2808-.6667-.7518-.3056-1.2808-.6667-1.5871-1.0556-.3063-.3888-.4733-.8888-.4733-1.49996 0-.77778.3063-1.41666.9188-1.91666.6126-.5 1.42-.75 2.3946-.75.3063 0 .6404.02777 1.0023.11111.362.08333.6961.16666.9467.25v1.97222c-.2784-.16667-.5847-.33333-.9467-.47222-.3619-.13889-.7239-.19445-1.058-.19445-.3898 0-.6961.08334-.891.22222-.1949.19445-.3063.38889-.3063.66667zm4.5664 2.16667c0-1.4167.4176-2.55556 1.1972-3.38889.8075-.83333 1.9212-1.25 3.3413-1.25 1.3365 0 2.3945.38889 3.1463 1.19444.7518.80556 1.1416 1.88885 1.1416 3.25005 0 1.3888-.4177 2.5-1.1973 3.3333-.8075.8333-1.8934 1.25-3.2855 1.25-1.3365 0-2.3946-.3889-3.1742-1.1667-.7518-.8055-1.1694-1.8889-1.1694-3.2222zm2.1161-.0833c0 .8889.1949 1.5833.6125 2.0555.4177.4722 1.0024.7222 1.7542.7222.7239 0 1.3086-.2222 1.6984-.7222.3899-.4722.5848-1.1666.5848-2.1111 0-.9167-.1949-1.6111-.5848-2.1111-.3898-.47222-.9745-.72222-1.6706-.72222-.7518 0-1.3086.24999-1.7263.74999-.4455.52783-.6682 1.22223-.6682 2.13893zm13.4763-2.69448h-3.035v6.94448h-2.0604v-6.94448h-1.4479v-1.66667h1.4479v-1.19444c0-.88889.3063-1.63889.891-2.22222.5847-.58334 1.3365-.86111 2.2553-.86111.2506 0 .4734.02777.6683.02777s.3619.05556.5012.11111v1.75c-.0557-.02777-.195-.08333-.362-.13888-.1671-.05556-.362-.08334-.5847-.08334-.4177 0-.7518.13889-.9745.38889-.2228.25-.3342.66667-.3342 1.16667v1.02778h3.035v-1.94445l2.0326-.61111v2.55556h2.0604v1.66666h-2.0604v4.02776c0 .5278.1113.8889.2784 1.1111.1949.2223.5012.3334.9188.3334.1114 0 .2506-.0278.4177-.0834.167-.0555.3063-.1111.4176-.1944v1.6667c-.1392.0833-.3341.1388-.6404.1944-.3062.0556-.5847.0833-.891.0833-.8631 0-1.5035-.2222-1.9212-.6666-.4176-.4445-.6404-1.1389-.6404-2.0556z"/><path d="m9.52251 0h-9.52251v9.5h9.52251z"/><path d="m20.0459 0h-9.5225v9.5h9.5225z"/><path d="m9.52251 10.5h-9.52251v9.5h9.52251z"/><path d="m20.0459 10.5h-9.5225v9.5h9.5225z"/></g></svg>