<svg fill="none" height="32" viewBox="0 0 99 32" width="99" xmlns="http://www.w3.org/2000/svg"><g fill="#fcfeea"><path d="m31.9688 27.8034h2.922v-11.0423h-2.922zm8.0638.2183c2.3672 0 4.2075-1.6479 4.2075-4.0986 0-2.4648-1.8473-4.0704-4.2075-4.0704-2.325 0-4.2075 1.6056-4.2075 4.0704 0 2.4577 1.8755 4.0986 4.2075 4.0986zm0-2.5986c-.6462 0-1.2573-.5493-1.2573-1.493 0-.9436.6251-1.4648 1.2573-1.4648.6392 0 1.2574.5212 1.2574 1.4648 0 .9437-.6112 1.493-1.2574 1.493zm8.4362-7.1268h-2.8168v1.7817h-1.0536v2.3873h1.0536v2.155c0 2.0422 1.1239 3.4155 3.4419 3.4155.6181 0 .9834-.0564 1.4189-.1479v-2.4366c-.2458.0422-.4776.0704-.6954.0704-.7656 0-1.3557-.2888-1.3557-1.0704v-1.9719h1.9528v-2.3873h-1.9457zm10.3467 5.5212c0-2.5916-1.6788-3.9578-3.7439-3.9578-2.2829 0-4.0039 1.6831-4.0039 4.0986 0 2.331 1.6156 4.0704 4.5658 4.0704.9693 0 1.8755-.1901 2.6692-.5774v-2.2395c-.6813.3028-1.4189.5775-2.2548.5775-.9131 0-1.7631-.3451-2.1353-1.0845h4.8397c.0351-.2606.0632-.5564.0632-.8873zm-5.0153-.7254c.2037-.6197.6813-1 1.2573-1 .6252 0 .9834.4648.9975 1zm6.0127 4.7113h2.9221v-3.3169c0-1.3874.7797-1.7958 1.6437-1.7958.2318 0 .4777.0282.7235.0845v-2.7113c-.1896-.0563-.3863-.0845-.6322-.0845-.6954 0-1.5172.3028-2.023 1.1902h-.0281l-.288-1.0986h-2.325v7.7324zm7.4106-8.6409c.8359 0 1.5173-.669 1.5173-1.507s-.6814-1.5071-1.5173-1.5071c-.8499 0-1.5172.6691-1.5172 1.5071s.6743 1.507 1.5172 1.507zm-1.461 8.6409h2.9221v-7.7254h-2.9221zm5.7529-8.6409c.8359 0 1.5172-.669 1.5172-1.507s-.6813-1.5071-1.5172-1.5071c-.85 0-1.5173.6691-1.5173 1.5071s.6673 1.507 1.5173 1.507zm-1.426.9155v8.3169c0 .3592-.1615.5211-.5619.5211h-.59v2.5916h1.0115c1.8052 0 3.1679-.7676 3.1679-3.162v-8.2676z"/><path d="m36.8647 4.20346c-1.0256 0-1.8193.50704-2.2829 1.23239h-.0562l-.288-1.01408h-2.2688v7.72533h2.922v-4.47886c0-.49295.3442-.86619.9062-.86619.5338 0 .8078.27464.8078.9014v4.43665h2.9221v-5.19721c.007-1.73944-.9764-2.73943-2.6622-2.73943zm8.401 7.57044c.5198.3943 1.166.5211 1.8122.5211.5971 0 1.131-.1127 1.4611-.3028v-2.1479c-.1264.06338-.2529.09155-.3653.09155-.2809 0-.3933-.19014-.3933-.50704v-2.23944c0-.97887-.2669-1.70422-.9624-2.22535-.6602-.50704-1.6858-.76056-2.8026-.76056-1.1661 0-2.2057.2676-2.8659.57042v2.42957c.6462-.2676 1.4329-.52112 2.2548-.52112.4074 0 .8007.06338 1.0395.28169.1546.15493.2178.33098.2178.57042v.11268c-.3793-.07747-.7586-.12676-1.1801-.12676-.7586 0-1.5734.14084-2.1705.5845-.5198.38029-.9131 1.02817-.9131 1.8662 0 .83804.3793 1.45074.9904 1.85914.5057.331 1.1168.4859 1.8263.4859.7727 0 1.447-.2042 2.016-.5493h.0351zm-.7867-1.6268c-.1546.0634-.3583.1127-.5549.1127-.3583 0-.6955-.1761-.6955-.5493 0-.40845.3794-.57043.7868-.57043.1124 0 .3161.01409.4565.0493v.95773zm8.3307-7.50703h-2.8167v1.7817h-1.0536v2.38732h1.0536v2.15493c0 2.04228 1.1239 3.41548 3.4419 3.41548.6181 0 .9834-.0563 1.4189-.1479v-2.4366c-.2458.04226-.4776.07043-.6954.07043-.7656 0-1.3557-.28874-1.3557-1.07043v-1.97183h1.9528v-2.4014h-1.9528v-1.7817zm4.6009.8662c.8359 0 1.5173-.66901 1.5173-1.50704s-.6814-1.507042-1.5173-1.507042c-.8499 0-1.5172.669012-1.5172 1.507042s.6673 1.50704 1.5172 1.50704zm-1.461 8.64793h2.9221v-7.73243h-2.9221zm8.0217.2183c2.3672 0 4.2075-1.6479 4.2075-4.09862 0-2.46479-1.8473-4.07042-4.2075-4.07042-2.325 0-4.2075 1.60563-4.2075 4.07042 0 2.45072 1.8684 4.09862 4.2075 4.09862zm0-2.60566c-.6392 0-1.2573-.5493-1.2573-1.49296s.6251-1.46479 1.2573-1.46479c.6392 0 1.2573.52113 1.2573 1.46479s-.6181 1.49296-1.2573 1.49296zm10.0447-5.56338c-1.0255 0-1.8193.50704-2.2829 1.23239h-.0562l-.288-1.01408h-2.2688v7.72533h2.9221v-4.47886c0-.49295.3442-.86619.8991-.86619.5338 0 .8078.27464.8078.9014v4.43665h2.9221v-5.19721c.007-1.73944-.9764-2.73943-2.6552-2.73943zm8.401 7.57044c.5198.3943 1.1661.5211 1.8123.5211.5971 0 1.1309-.1127 1.461-.3028v-2.1479c-.1264.06338-.2528.09155-.3582.09155-.281 0-.3934-.19014-.3934-.50704v-2.23944c0-.97887-.2669-1.70422-.9623-2.22535-.6603-.50704-1.6858-.76056-2.8027-.76056-1.166 0-2.2056.2676-2.8659.57042v2.42957c.6463-.2676 1.433-.52112 2.2548-.52112.4074 0 .8008.06338 1.0396.28169.1545.15493.2178.33098.2178.57042v.11268c-.3793-.07747-.7587-.12676-1.1801-.12676-.7586 0-1.5735.14084-2.1705.5845-.5198.38029-.9132 1.02817-.9132 1.8662 0 .83804.3793 1.45074.9905 1.85914.5057.331 1.1168.4859 1.8263.4859.7726 0 1.447-.2042 2.0159-.5493h.0281zm-.6041-1.6268c-.1545.0634-.3652.1127-.5549.1127-.3652 0-.6954-.1761-.6954-.5493 0-.40845.3793-.57043.7867-.57043.1124 0 .3161.01409.4566.0493v.95773zm5.0786 2.0071h2.9221v-11.04934h-2.9221zm11.6111-3.993c0-2.59155-1.6788-3.95774-3.7439-3.95774-2.2829 0-4.0039 1.68309-4.0039 4.09859 0 2.33095 1.6156 4.07045 4.5658 4.07045.9693 0 1.8755-.1902 2.6622-.5775v-2.23239c-.6813.30282-1.4189.57749-2.2548.57749-.9131 0-1.7631-.3451-2.1283-1.08453h4.8397c.0351-.26057.0632-.56338.0632-.89437zm-4.8257-.72535c.2037-.61972.6814-1 1.2574-1 .6321 0 .9834.46479.9974 1z"/><path d="m13.0165 2.625c-6.91895 0-12.524312 5.61972-12.524312 12.5493 0 6.9296 5.605362 12.5563 12.524312 12.5563 4.2777 0 7.7477-3.4788 7.7477-7.7676 0-4.2887-2.9783-7.8591-7.7477-7.7676-1.6437.0282-3.03453-1.0915-2.9783-2.98589.0491-1.89437 1.8895-2.82395 3.6175-2.90141 4.1654-.1831 7.242 2.26761 8.998 5.8028.7025 1.4648 1.1099 3.2465 1.1099 4.9789 0 2.5211-.9062 4.7113-2.3251 6.5563-.0983.1197-.1194.3099 0 .4296.1124.1127.3021.1127.4215 0 1.0888-1.0845 3.6807-4.1056 3.6807-8.8944 0-6.93658-5.6053-12.5563-12.5242-12.5563zm0 12.5563c2.6341 0 4.7694 2.1409 4.7694 4.7817 0 2.6409-2.1353 4.7817-4.7694 4.7817s-4.76952-2.1408-4.76952-4.7817c0-2.6408 2.13542-4.7817 4.76952-4.7817z"/></g></svg>