<svg fill="none" height="18" viewBox="0 0 78 18" width="78" xmlns="http://www.w3.org/2000/svg"><path clip-rule="evenodd" d="m53.9194.546341h2.5834v16.907359h-2.5834zm-18.6753 8.453659c.0099 5.3756-3.905 8.7415-8.9427 8.7415s-8.9427-3.3659-8.9427-8.7415c0-5.14634 3.905-8.741463 8.9427-8.741463s8.9377 3.863413 8.9427 8.741463zm-8.9427-6.33659c-3.5125 0-6.3642 2.59513-6.3642 6.33659 0 3.8098 2.8517 6.3317 6.3642 6.3317s6.3642-2.5219 6.3642-6.3317c0-3.74146-2.8517-6.33659-6.3642-6.33659zm-9.9512 11.71709v3.6195l-13.71211-12.08293v11.53173h-2.63809v-17.4488zm30.4349-13.834159h3.8453l-9.6084 8.448779 9.6084 8.45368h-3.8453l-9.5935-8.45368zm31.2149 16.907359h-2.8418l-2.0816-3.7464h-9.4147l-2.0816 3.7464h-2.8418l3.4429-6.2391h9.5438l-4.7595-8.67314 1.406-2.54146z" fill="#fcfeea" fill-rule="evenodd"/></svg>