<svg fill="none" height="48" viewBox="0 0 48 48" width="48" xmlns="http://www.w3.org/2000/svg"><g fill="#fcfeea"><path d="m39.5518 38.2812c-.7958 0-1.2868.508-1.3545 1.4223h2.692c0-.8974-.5079-1.4223-1.3375-1.4223z"/><path d="m32.2028 38.3477c-.6265 0-1.3376.4571-1.3376 1.964.017.8296.0678 2.1841 1.3545 2.1841 1.3376-.0169 1.4392-1.3714 1.4392-2.2518 0-1.0498-.508-1.8963-1.4561-1.8963z"/><path d="m16.3555 41.9378c0 .4403.2878.8635.7957.8635.5588 0 1.0836-.237 1.6254-.7111v-1.5746c-1.6423.2201-2.4211.6265-2.4211 1.4222z"/><path d="m0 0v48h48v-48zm5.90899 44.1227c-1.74391 0-3.30158-1.1005-3.30158-3.5216 0-2.4212 1.5746-3.5217 3.30158-3.5217 1.72699 0 3.30159 1.1005 3.30159 3.5217 0 2.4211-1.55767 3.5216-3.30159 3.5216zm8.24551-5.3671h-.0847c-.7619 0-1.6084.1185-1.8624.7111v4.4359h-1.7947v-6.6539h1.6762v.7788c.3217-.4233 1.1005-.9312 1.8455-.9312.0677 0 .1524 0 .2201.0169zm6.4 5.164h-1.5577l-.1693-.5757c-.6772.4402-1.4222.6603-2.201.6603-1.253 0-1.981-.8296-1.981-1.9471 0-1.4899 1.3714-2.2857 4.1989-2.6074v-.3725c0-.491-.3724-.7619-1.0497-.7619-.6772 0-1.236.2709-1.6254.7619l-1.1852-.6772c.6265-.8635 1.5746-1.3037 2.8445-1.3037 1.7439 0 2.7259.7619 2.7259 1.9809zm7.3651.0169h-1.7609v-4.3513c0-.8127-.2201-1.1852-.8465-1.1852-.5249 0-1.0498.237-1.6424.745v4.7915h-1.7439v-6.5016l1.4561-.2032.1524.7958c.8296-.5926 1.473-.9143 2.3026-.9143 1.3715 0 2.0826.7281 2.0826 2.1672zm7.4497-.3725c0 1.1175-.0846 2.9461-3.2677 2.9799-1.3206 0-2.5228-.5249-2.7767-1.6592l1.7269-.2709c.0678.3216.271.6603 1.253.6603.9142 0 1.3545-.4402 1.3545-1.473v-.7789l-.017-.0169c-.2709.491-.7111.9651-1.727.9651-1.5576 0-2.7767-1.0836-2.7767-3.3355 0-2.2518 1.2699-3.4878 2.6921-3.4878 1.3003 0 1.7998.5757 1.9352.9041l.1473-.7687h1.4561zm7.2296-2.7259h-4.4529c.017 1.2698.5418 1.8963 1.5746 1.8963.6604 0 1.1006-.2709 1.5069-.8635l1.2868.7111c-.5587.9651-1.5746 1.473-2.946 1.473-1.9641 0-3.1493-1.2698-3.1493-3.4709 0-2.201 1.1852-3.4878 3.1154-3.4878s3.0815 1.219 3.0815 3.4032c0 .1185-.017.237-.017.3386zm.6773-5.8243h-.6773v1.9132h-.3724v-1.9132h-.6942v-.2879h1.7439zm2.8444 1.9132h-.3217v-1.8455h-.0169l-.728 1.8455h-.2371l-.728-1.8455h-.0169v1.8455h-.3725v-2.2011h.5587l.6603 1.6762.6434-1.6762h.5587z"/><path d="m5.90923 42.6143c.86028 0 1.55768-.9097 1.55768-2.0318s-.6974-2.0317-1.55768-2.0317c-.86027 0-1.55767.9096-1.55767 2.0317s.6974 2.0318 1.55767 2.0318z"/></g></svg>