<svg fill="none" height="24" viewBox="0 0 63 24" width="63" xmlns="http://www.w3.org/2000/svg"><path d="m62.6628 11.617c-1.5302-6.94466-10.2449-6.58721-13.2276-2.27232-2.4121-3.95745-8.1701-3.90638-11.3603-1.30213v-1.94042h-6.3804v11.71917h-2.1008c-1.6859 0-2.8531-.8681-3.0865-2.6809-.0259-.2298-.0519-.4595-.0519-.7149v-2.1957h3.268v-6.10214h-3.268v-6.12766l-3.268 6.12766h-7.4957l-3.4755 6.99574-1.1152 2.2468-1.0116-2.5276-2.61956-6.71494h-7.46974l2.67147 5.64254 5.75792 12.2298h5.57641l5.2132-9.8809.8041-1.5063v2.5276c0 5.1319 3.1123 8.8596 8.7406 8.8596h9.2853v-8.783c0-3.1149 5.6801-4.1106 5.6801-.6127v9.3702h6.977v-8.7575c0-3.0383 5.1354-4.0596 5.3688-.8425v9.6255h6.9251v-9.2936c-.0259-.7404 0-1.5575-.3372-3.0894z" fill="#fcfeea"/></svg>