<svg fill="none" height="52" viewBox="0 0 45 52" width="45" xmlns="http://www.w3.org/2000/svg"><g clip-rule="evenodd" fill="#fcfeea" fill-rule="evenodd"><path d="m38.6135 18.0648c.5331-2.9119-1.4574-5.2002-3.7687-6.8642-3.2346-2.32271-6.8954-3.70944-10.6636-4.78419v38.41269c1.6706-1.4212 3.3415-3.0161 4.9407-4.6457 3.4127-3.6747 6.5767-7.4188 7.8916-11.926.533-2.0451.249-4.3681-1.5286-5.7548 1.5289-1.1788 2.9149-2.635 3.1286-4.4378zm-6.5055 13.2781c-1.1731 2.0801-2.7726 3.987-4.6573 5.7548l-.0353-10.9901c1.2799-.9012 2.5948-1.6987 4.1948-1.8375.6401 0 1.2088.2079 1.6351.6934 1.4225 2.1842-.2488 4.4725-1.1373 6.3794zm3.2351-14.1449c-.3202 1.7334-2.2754 2.7388-3.6617 3.4668-1.3863.6934-2.8085 1.248-4.266 1.7678v-11.2323c2.2402.6587 4.266 1.7681 6.1854 3.0857.8891.7281 2.0978 1.6293 1.7423 2.912zm-14.0769 27.3535v-38.27416l-3.1637 1.59491v20.52395c-.142.589.2844 1.4905-.391 1.7678-.1779.0347-.3199-.0344-.3911-.1729-1.3507-4.9579-1.9196-10.1926-2.1684-15.5663l-.1067-4.68035-3.0214 2.18415v1.248c.1776 4.9579.5334 9.8112 1.4931 14.4568l-1.2085 1.3177c-.4622-.624-.7465-1.283-1.0667-1.9416-1.5283-3.952-2.09723-8.2857-2.3104-12.7579l-2.63062 1.9069c.24904 6.7952 1.5642 13.2086 5.79432 18.3048.8177-.9013 1.6353-1.8375 2.453-2.7041.4266 1.8375 1.0308 3.6056 1.7418 5.3388 1.1726 2.6693 2.488 5.3734 4.9763 7.4535z"/><path d="m44.9716 11.3771-4.6734-1.1515-.8435-3.14091-4.7786-1.11684-.9835-3.4201-11.2792-2.54775-11.0686 2.54746-.9838 3.4201-4.7789 1.11684c-.31621 1.08163-.59725 2.1289-.87858 3.1759l-4.6734121 1.1165c-.3513779 9.8767 2.3896021 18.5666 7.3440521 26.3144 3.61924 5.549 9.06574 11.4123 15.03924 14.3088 4.0404-1.9196 7.6251-5.1304 10.8575-8.7252 7.8358-9.0034 12.1224-19.5431 11.7007-31.8977zm-13.7741 29.8745c-2.5648 2.8618-5.4465 5.6884-8.6789 7.3289-3.0921-1.5357-5.7976-4.188-8.2573-6.8754-6.3951-7.4337-10.64679-15.7397-11.34955-25.4767-.07033-.8028-.10521-1.5703-.07033-2.408l3.97065-.9073.91347-3.24573 4.88436-1.15149.0352-.10478.8783-3.35053 8.8548-2.05904 9.1358 2.05904.8783 3.4201 4.9547 1.1867.8435 3.24573 4.0055.9073c-.1058 10.6093-4.3575 19.5088-10.9985 27.4312z"/></g></svg>