<svg height="320pt" preserveAspectRatio="xMidYMid meet" viewBox="0 0 320 320" width="320pt" xmlns="http://www.w3.org/2000/svg"><path d="m1230 2795c0-3 6-18 14-33 24-46 65-211 85-342 42-271 15-450-101-667-43-82-149-235-188-273-3-3-28-32-55-65-28-33-58-69-68-79-82-92-179-271-207-381-59-235 15-433 192-515 87-40 138-50 248-46 146 6 245 34 340 97 197 132 292 370 292 733 0 99 1 107 13 76 6-19 78-208 159-420 82-212 150-392 153-401 4-15 29-17 208-17h203l-18 52c-10 28-48 130-85 226s-84 220-105 275c-20 55-55 147-78 205-22 58-72 188-110 290-39 102-102 268-140 370-39 102-125 329-192 505-66 176-129 340-139 365l-17 45-202 3c-111 1-202 0-202-3zm250-660c52-138 111-305 115-328 2-9 6-21 9-25 5-9 54-196 63-240 52-272 32-581-47-748-73-153-197-236-343-229-166 8-263 126-260 315 2 142 21 198 180 535 167 352 223 537 226 742 1 61 5 106 9 100 3-7 25-62 48-122z" transform="matrix(.1 0 0 -.1 0 320)"/></svg>